<svg xmlns="http://www.w3.org/2000/svg" xmlns:xlink="http://www.w3.org/1999/xlink" width="1366" zoomAndPan="magnify" viewBox="0 0 1024.5 1024.500009" height="1366" preserveAspectRatio="xMidYMid meet" version="1.0"><defs><clipPath id="1048622619"><path d="M 203.722656 25 L 850.65625 25 L 850.65625 999 L 203.722656 999 Z M 203.722656 25 " clip-rule="nonzero"/></clipPath></defs><path fill="#ffffff" d="M 840.710938 902.007812 C 840.710938 950.222656 801.621094 989.308594 753.410156 989.308594 L 296.292969 989.308594 C 250.675781 989.308594 213.347656 951.054688 213.347656 904.304688 L 213.347656 119.695312 C 213.347656 72.933594 250.675781 34.691406 296.292969 34.691406 L 757.761719 34.691406 C 803.390625 34.691406 840.710938 72.933594 840.710938 119.695312 L 840.710938 902.007812 " fill-opacity="1" fill-rule="nonzero"/><g clip-path="url(#1048622619)"><path fill="#000000" d="M 296.296875 44.320312 C 255.871094 44.320312 222.976562 78.128906 222.976562 119.695312 L 222.976562 904.308594 C 222.976562 945.871094 255.871094 979.683594 296.296875 979.683594 L 753.410156 979.683594 C 796.238281 979.683594 831.085938 944.84375 831.085938 902.007812 L 831.085938 119.695312 C 831.085938 78.128906 798.1875 44.320312 757.761719 44.320312 Z M 753.410156 998.933594 L 296.296875 998.933594 C 245.253906 998.933594 203.722656 956.484375 203.722656 904.308594 L 203.722656 119.695312 C 203.722656 67.519531 245.253906 25.0625 296.296875 25.0625 L 757.761719 25.0625 C 808.804688 25.0625 850.335938 67.519531 850.335938 119.695312 L 850.335938 902.007812 C 850.335938 955.457031 806.859375 998.933594 753.410156 998.933594 " fill-opacity="1" fill-rule="nonzero"/></g><path fill="#ffde59" d="M 639.070312 482.945312 L 639.070312 482.234375 C 639.070312 466.257812 652.136719 453.183594 668.125 453.183594 L 756.5625 453.183594 C 772.539062 453.183594 785.621094 466.257812 785.621094 482.234375 L 785.621094 482.945312 C 785.621094 498.929688 772.539062 511.996094 756.5625 511.996094 L 668.125 511.996094 C 652.136719 511.996094 639.070312 498.929688 639.070312 482.945312 " fill-opacity="1" fill-rule="nonzero"/><path fill="#000000" d="M 668.121094 462.808594 C 657.410156 462.808594 648.695312 471.523438 648.695312 482.234375 L 648.695312 482.949219 C 648.695312 493.660156 657.410156 502.371094 668.121094 502.371094 L 756.566406 502.371094 C 767.273438 502.371094 775.992188 493.660156 775.992188 482.949219 L 775.992188 482.234375 C 775.992188 471.523438 767.273438 462.808594 756.566406 462.808594 Z M 756.566406 521.621094 L 668.121094 521.621094 C 646.796875 521.621094 629.445312 504.273438 629.445312 482.949219 L 629.445312 482.234375 C 629.445312 460.910156 646.796875 443.558594 668.121094 443.558594 L 756.566406 443.558594 C 777.890625 443.558594 795.242188 460.910156 795.242188 482.234375 L 795.242188 482.949219 C 795.242188 504.273438 777.890625 521.621094 756.566406 521.621094 " fill-opacity="1" fill-rule="nonzero"/><path fill="#ffffff" d="M 273.59375 337.394531 C 273.59375 356.015625 288.691406 371.113281 307.3125 371.113281 L 753.8125 371.113281 C 768.511719 371.113281 780.429688 358.90625 780.429688 343.835938 L 780.429688 147.648438 C 780.429688 132.582031 768.511719 120.363281 753.8125 120.363281 L 300.21875 120.363281 C 285.515625 120.363281 273.59375 132.582031 273.59375 147.648438 L 273.59375 337.394531 " fill-opacity="1" fill-rule="nonzero"/><path fill="#000000" d="M 300.21875 129.988281 C 290.84375 129.988281 283.21875 137.910156 283.21875 147.648438 L 283.21875 337.390625 C 283.21875 350.679688 294.027344 361.492188 307.3125 361.492188 L 753.808594 361.492188 C 763.175781 361.492188 770.796875 353.574219 770.796875 343.832031 L 770.796875 147.648438 C 770.796875 137.910156 763.175781 129.988281 753.808594 129.988281 Z M 753.808594 380.742188 L 307.3125 380.742188 C 283.410156 380.742188 263.964844 361.300781 263.964844 337.390625 L 263.964844 147.648438 C 263.964844 127.289062 280.226562 110.734375 300.21875 110.734375 L 753.808594 110.734375 C 773.796875 110.734375 790.050781 127.289062 790.050781 147.648438 L 790.050781 343.832031 C 790.050781 364.1875 773.796875 380.742188 753.808594 380.742188 " fill-opacity="1" fill-rule="nonzero"/><path fill="#000000" d="M 337.457031 320.449219 C 332.140625 320.449219 327.828125 316.136719 327.828125 310.828125 L 327.828125 181.839844 C 327.828125 176.523438 332.140625 172.210938 337.457031 172.210938 C 342.769531 172.210938 347.082031 176.523438 347.082031 181.839844 L 347.082031 310.828125 C 347.082031 316.136719 342.769531 320.449219 337.457031 320.449219 " fill-opacity="1" fill-rule="nonzero"/><path fill="#000000" d="M 406.019531 183.703125 L 337.457031 255.277344 L 406.019531 183.703125 " fill-opacity="1" fill-rule="nonzero"/><path fill="#000000" d="M 337.457031 264.902344 C 335.0625 264.902344 332.660156 264.011719 330.792969 262.226562 C 326.957031 258.550781 326.828125 252.453125 330.503906 248.613281 L 399.070312 177.039062 C 402.734375 173.199219 408.832031 173.070312 412.679688 176.746094 C 416.515625 180.425781 416.648438 186.515625 412.96875 190.355469 L 344.40625 261.9375 C 342.519531 263.90625 339.988281 264.902344 337.457031 264.902344 " fill-opacity="1" fill-rule="nonzero"/><path fill="#000000" d="M 416.644531 307.296875 L 359.207031 234.015625 L 416.644531 307.296875 " fill-opacity="1" fill-rule="nonzero"/><path fill="#000000" d="M 416.648438 316.925781 C 413.789062 316.925781 410.964844 315.660156 409.066406 313.230469 L 351.628906 239.945312 C 348.351562 235.769531 349.085938 229.714844 353.273438 226.4375 C 357.457031 223.160156 363.507812 223.894531 366.785156 228.082031 L 424.21875 301.359375 C 427.496094 305.546875 426.761719 311.597656 422.578125 314.871094 C 420.816406 316.253906 418.722656 316.925781 416.648438 316.925781 " fill-opacity="1" fill-rule="nonzero"/><path fill="#000000" d="M 488.464844 319.269531 L 485.117188 319.269531 C 457.53125 319.269531 435.089844 296.378906 435.089844 268.238281 L 435.089844 222.054688 C 435.089844 193.914062 457.53125 171.027344 485.117188 171.027344 L 488.464844 171.027344 C 504.523438 171.027344 519.742188 179.039062 529.160156 192.449219 C 532.21875 196.804688 531.164062 202.808594 526.816406 205.863281 C 522.457031 208.921875 516.457031 207.859375 513.40625 203.515625 C 507.589844 195.226562 498.265625 190.28125 488.464844 190.28125 L 485.117188 190.28125 C 468.148438 190.28125 454.339844 204.53125 454.339844 222.054688 L 454.339844 268.238281 C 454.339844 285.757812 468.148438 300.015625 485.117188 300.015625 L 488.464844 300.015625 C 498.617188 300.015625 508.128906 294.789062 513.917969 286.035156 C 516.847656 281.59375 522.808594 280.363281 527.253906 283.316406 C 531.691406 286.242188 532.90625 292.210938 529.976562 296.652344 C 520.617188 310.8125 505.09375 319.269531 488.464844 319.269531 " fill-opacity="1" fill-rule="nonzero"/><path fill="#000000" d="M 593.3125 183.023438 L 552.082031 310.820312 L 593.3125 183.023438 " fill-opacity="1" fill-rule="nonzero"/><path fill="#000000" d="M 552.085938 320.449219 C 551.109375 320.449219 550.109375 320.300781 549.125 319.984375 C 544.070312 318.347656 541.292969 312.933594 542.921875 307.867188 L 584.152344 180.0625 C 585.789062 175.011719 591.199219 172.242188 596.273438 173.859375 C 601.328125 175.492188 604.105469 180.914062 602.472656 185.976562 L 561.246094 313.785156 C 559.929688 317.855469 556.152344 320.449219 552.085938 320.449219 " fill-opacity="1" fill-rule="nonzero"/><path fill="#000000" d="M 595.886719 183.023438 L 637.109375 310.820312 L 595.886719 183.023438 " fill-opacity="1" fill-rule="nonzero"/><path fill="#000000" d="M 637.109375 320.449219 C 633.042969 320.449219 629.265625 317.855469 627.949219 313.785156 L 586.726562 185.980469 C 585.097656 180.914062 587.871094 175.496094 592.929688 173.859375 C 598.019531 172.238281 603.414062 175.011719 605.050781 180.0625 L 646.273438 307.867188 C 647.902344 312.933594 645.125 318.351562 640.066406 319.988281 C 639.085938 320.300781 638.089844 320.449219 637.109375 320.449219 " fill-opacity="1" fill-rule="nonzero"/><path fill="#000000" d="M 629.566406 302.671875 L 559.449219 302.671875 C 554.132812 302.671875 549.824219 298.359375 549.824219 293.046875 C 549.824219 287.730469 554.132812 283.417969 559.449219 283.417969 L 629.566406 283.417969 C 634.882812 283.417969 639.191406 287.730469 639.191406 293.046875 C 639.191406 298.359375 634.882812 302.671875 629.566406 302.671875 " fill-opacity="1" fill-rule="nonzero"/><path fill="#000000" d="M 675.671875 319.273438 C 670.355469 319.273438 666.042969 314.964844 666.042969 309.648438 L 666.042969 184.210938 C 666.042969 178.902344 670.355469 174.589844 675.671875 174.589844 C 680.980469 174.589844 685.292969 178.902344 685.292969 184.210938 L 685.292969 309.648438 C 685.292969 314.964844 680.980469 319.273438 675.671875 319.273438 " fill-opacity="1" fill-rule="nonzero"/><path fill="#000000" d="M 735.503906 319.261719 L 675.671875 319.261719 C 670.355469 319.261719 666.046875 314.945312 666.046875 309.632812 C 666.046875 304.316406 670.355469 300.007812 675.671875 300.007812 L 735.503906 300.007812 C 740.824219 300.007812 745.132812 304.316406 745.132812 309.632812 C 745.132812 314.945312 740.824219 319.261719 735.503906 319.261719 " fill-opacity="1" fill-rule="nonzero"/><path fill="#efb8cb" d="M 409.921875 655.6875 C 409.921875 689.722656 383.007812 717.3125 349.792969 717.3125 C 316.585938 717.3125 289.664062 689.722656 289.664062 655.6875 C 289.664062 621.65625 316.585938 594.0625 349.792969 594.0625 C 383.007812 594.0625 409.921875 621.65625 409.921875 655.6875 " fill-opacity="1" fill-rule="nonzero"/><path fill="#000000" d="M 349.792969 603.6875 C 321.945312 603.6875 299.292969 627.015625 299.292969 655.683594 C 299.292969 684.359375 321.945312 707.683594 349.792969 707.683594 C 377.644531 707.683594 400.296875 684.359375 400.296875 655.683594 C 400.296875 627.015625 377.644531 603.6875 349.792969 603.6875 Z M 349.792969 726.933594 C 311.328125 726.933594 280.039062 694.96875 280.039062 655.683594 C 280.039062 616.398438 311.328125 584.4375 349.792969 584.4375 C 388.257812 584.4375 419.550781 616.398438 419.550781 655.683594 C 419.550781 694.96875 388.257812 726.933594 349.792969 726.933594 " fill-opacity="1" fill-rule="nonzero"/><path fill="#efb8cb" d="M 588.328125 655.6875 C 588.328125 689.722656 561.414062 717.3125 528.199219 717.3125 C 494.992188 717.3125 468.070312 689.722656 468.070312 655.6875 C 468.070312 621.65625 494.992188 594.0625 528.199219 594.0625 C 561.414062 594.0625 588.328125 621.65625 588.328125 655.6875 " fill-opacity="1" fill-rule="nonzero"/><path fill="#000000" d="M 528.195312 603.6875 C 500.351562 603.6875 477.699219 627.015625 477.699219 655.683594 C 477.699219 684.359375 500.351562 707.683594 528.195312 707.683594 C 556.046875 707.683594 578.707031 684.359375 578.707031 655.683594 C 578.707031 627.015625 556.046875 603.6875 528.195312 603.6875 Z M 528.195312 726.933594 C 489.734375 726.933594 458.445312 694.96875 458.445312 655.683594 C 458.445312 616.398438 489.734375 584.4375 528.195312 584.4375 C 566.660156 584.4375 597.957031 616.398438 597.957031 655.683594 C 597.957031 694.96875 566.660156 726.933594 528.195312 726.933594 " fill-opacity="1" fill-rule="nonzero"/><path fill="#efb8cb" d="M 409.921875 832.804688 C 409.921875 866.84375 383.007812 894.429688 349.792969 894.429688 C 316.585938 894.429688 289.664062 866.84375 289.664062 832.804688 C 289.664062 798.78125 316.585938 771.183594 349.792969 771.183594 C 383.007812 771.183594 409.921875 798.78125 409.921875 832.804688 " fill-opacity="1" fill-rule="nonzero"/><path fill="#000000" d="M 349.792969 780.8125 C 321.945312 780.8125 299.292969 804.136719 299.292969 832.804688 C 299.292969 861.480469 321.945312 884.808594 349.792969 884.808594 C 377.644531 884.808594 400.296875 861.480469 400.296875 832.804688 C 400.296875 804.136719 377.644531 780.8125 349.792969 780.8125 Z M 349.792969 904.058594 C 311.328125 904.058594 280.039062 872.089844 280.039062 832.804688 C 280.039062 793.519531 311.328125 761.558594 349.792969 761.558594 C 388.257812 761.558594 419.550781 793.519531 419.550781 832.804688 C 419.550781 872.089844 388.257812 904.058594 349.792969 904.058594 " fill-opacity="1" fill-rule="nonzero"/><path fill="#efb8cb" d="M 588.328125 832.804688 C 588.328125 866.84375 561.414062 894.429688 528.199219 894.429688 C 494.992188 894.429688 468.070312 866.84375 468.070312 832.804688 C 468.070312 798.78125 494.992188 771.183594 528.199219 771.183594 C 561.414062 771.183594 588.328125 798.78125 588.328125 832.804688 " fill-opacity="1" fill-rule="nonzero"/><path fill="#000000" d="M 528.195312 780.8125 C 500.351562 780.8125 477.699219 804.136719 477.699219 832.804688 C 477.699219 861.480469 500.351562 884.808594 528.195312 884.808594 C 556.046875 884.808594 578.707031 861.480469 578.707031 832.804688 C 578.707031 804.136719 556.046875 780.8125 528.195312 780.8125 Z M 528.195312 904.058594 C 489.734375 904.058594 458.445312 872.089844 458.445312 832.804688 C 458.445312 793.519531 489.734375 761.558594 528.195312 761.558594 C 566.660156 761.558594 597.957031 793.519531 597.957031 832.804688 C 597.957031 872.089844 566.660156 904.058594 528.195312 904.058594 " fill-opacity="1" fill-rule="nonzero"/><path fill="#ffde59" d="M 275.257812 482.945312 L 275.257812 482.230469 C 275.257812 466.253906 288.328125 453.179688 304.308594 453.179688 L 392.746094 453.179688 C 408.726562 453.179688 421.800781 466.253906 421.800781 482.230469 L 421.800781 482.945312 C 421.800781 498.925781 408.726562 511.996094 392.746094 511.996094 L 304.308594 511.996094 C 288.328125 511.996094 275.257812 498.925781 275.257812 482.945312 " fill-opacity="1" fill-rule="nonzero"/><path fill="#000000" d="M 304.304688 462.804688 C 293.59375 462.804688 284.882812 471.523438 284.882812 482.234375 L 284.882812 482.945312 C 284.882812 493.65625 293.59375 502.367188 304.304688 502.367188 L 392.746094 502.367188 C 403.457031 502.367188 412.171875 493.65625 412.171875 482.945312 L 412.171875 482.234375 C 412.171875 471.523438 403.457031 462.804688 392.746094 462.804688 Z M 392.746094 521.617188 L 304.304688 521.617188 C 282.980469 521.617188 265.632812 504.269531 265.632812 482.945312 L 265.632812 482.234375 C 265.632812 460.90625 282.980469 443.554688 304.304688 443.554688 L 392.746094 443.554688 C 414.074219 443.554688 431.425781 460.90625 431.425781 482.234375 L 431.425781 482.945312 C 431.425781 504.269531 414.074219 521.617188 392.746094 521.617188 " fill-opacity="1" fill-rule="nonzero"/><path fill="#ffde59" d="M 457.339844 482.945312 L 457.339844 482.230469 C 457.339844 466.253906 470.40625 453.179688 486.394531 453.179688 L 574.832031 453.179688 C 590.808594 453.179688 603.894531 466.253906 603.894531 482.230469 L 603.894531 482.945312 C 603.894531 498.925781 590.808594 511.996094 574.832031 511.996094 L 486.394531 511.996094 C 470.40625 511.996094 457.339844 498.925781 457.339844 482.945312 " fill-opacity="1" fill-rule="nonzero"/><path fill="#000000" d="M 486.398438 462.804688 C 475.679688 462.804688 466.964844 471.523438 466.964844 482.234375 L 466.964844 482.945312 C 466.964844 493.65625 475.679688 502.367188 486.398438 502.367188 L 574.835938 502.367188 C 585.546875 502.367188 594.265625 493.65625 594.265625 482.945312 L 594.265625 482.234375 C 594.265625 471.523438 585.546875 462.804688 574.835938 462.804688 Z M 574.835938 521.617188 L 486.398438 521.617188 C 465.066406 521.617188 447.714844 504.269531 447.714844 482.945312 L 447.714844 482.234375 C 447.714844 460.90625 465.066406 443.554688 486.398438 443.554688 L 574.835938 443.554688 C 596.164062 443.554688 613.519531 460.90625 613.519531 482.234375 L 613.519531 482.945312 C 613.519531 504.269531 596.164062 521.617188 574.835938 521.617188 " fill-opacity="1" fill-rule="nonzero"/><path fill="#efb8cb" d="M 710.753906 894.429688 C 677.011719 894.429688 649.410156 866.828125 649.410156 833.085938 L 649.410156 655.410156 C 649.410156 621.667969 677.011719 594.070312 710.753906 594.070312 C 744.496094 594.070312 772.09375 621.667969 772.09375 655.410156 L 772.09375 833.085938 C 772.09375 866.828125 744.496094 894.429688 710.753906 894.429688 " fill-opacity="1" fill-rule="nonzero"/><path fill="#000000" d="M 710.757812 603.691406 C 682.242188 603.691406 659.039062 626.894531 659.039062 655.414062 L 659.039062 833.085938 C 659.039062 861.605469 682.242188 884.808594 710.757812 884.808594 C 739.269531 884.808594 762.46875 861.605469 762.46875 833.085938 L 762.46875 655.414062 C 762.46875 626.894531 739.269531 603.691406 710.757812 603.691406 Z M 710.757812 904.058594 C 671.625 904.058594 639.789062 872.222656 639.789062 833.085938 L 639.789062 655.414062 C 639.789062 616.277344 671.625 584.441406 710.757812 584.441406 C 749.886719 584.441406 781.722656 616.277344 781.722656 655.414062 L 781.722656 833.085938 C 781.722656 872.222656 749.886719 904.058594 710.757812 904.058594 " fill-opacity="1" fill-rule="nonzero"/><path stroke-linecap="butt" transform="matrix(0.749634, 0, 0, 0.749634, 289.523189, 983.886377)" fill="none" stroke-linejoin="miter" d="M 0.000331522 2.001432 L 437.119829 2.001432 " stroke="#000000" stroke-width="4" stroke-opacity="1" stroke-miterlimit="4"/></svg>