<svg xmlns="http://www.w3.org/2000/svg" xmlns:xlink="http://www.w3.org/1999/xlink" width="1366" zoomAndPan="magnify" viewBox="0 0 1024.5 1024.500009" height="1366" preserveAspectRatio="xMidYMid meet" version="1.0"><defs><clipPath id="66120bebf1"><path d="M 773 743 L 969 743 L 969 938.753906 L 773 938.753906 Z M 773 743 " clip-rule="nonzero"/></clipPath></defs><g clip-path="url(#66120bebf1)"><path fill="#666e78" d="M 958.265625 830.394531 L 958.265625 830.375 L 881.742188 830.375 L 881.742188 753.828125 C 881.742188 747.90625 876.957031 743.125 871.039062 743.125 L 870.847656 743.125 C 864.925781 743.125 860.125 747.90625 860.125 753.828125 L 860.125 830.375 L 783.597656 830.375 L 783.597656 830.394531 C 777.761719 830.480469 773.066406 835.21875 773.066406 841.078125 C 773.066406 846.933594 777.761719 851.675781 783.597656 851.78125 L 783.597656 851.800781 L 860.125 851.800781 L 860.125 928.324219 C 860.125 934.246094 864.925781 939.027344 870.847656 939.027344 L 871.039062 939.027344 C 876.957031 939.027344 881.742188 934.246094 881.742188 928.324219 L 881.742188 851.800781 L 958.265625 851.800781 L 958.265625 851.78125 C 964.101562 851.675781 968.796875 846.933594 968.796875 841.078125 C 968.796875 835.21875 964.101562 830.480469 958.265625 830.394531 Z M 958.265625 830.394531 " fill-opacity="1" fill-rule="nonzero"/></g><path fill="#ffc6c6" d="M 567.808594 447.144531 L 555.398438 438.589844 C 552.34375 436.484375 550.613281 432.964844 550.785156 429.277344 C 550.929688 425.589844 552.996094 422.261719 556.21875 420.449219 C 612.769531 388.613281 647.890625 329.132812 647.890625 265.253906 C 647.890625 211.1875 623.789062 160.558594 581.777344 126.425781 C 550.152344 100.679688 511.027344 86.878906 470.507812 86.5 C 429.992188 86.878906 390.867188 100.679688 359.222656 126.425781 C 317.210938 160.558594 293.128906 211.1875 293.128906 265.253906 C 293.128906 329.132812 328.25 388.613281 384.800781 420.449219 C 388.023438 422.261719 390.066406 425.589844 390.234375 429.277344 C 390.402344 432.964844 388.65625 436.484375 385.621094 438.589844 L 373.210938 447.144531 C 269.082031 519.007812 210.644531 641.988281 220.640625 768.082031 L 720.359375 768.082031 C 730.355469 641.988281 671.914062 519.007812 567.808594 447.144531 Z M 567.808594 447.144531 " fill-opacity="1" fill-rule="nonzero"/><path fill="#ffe494" d="M 769.695312 360.234375 L 760.382812 353.808594 C 757.347656 351.699219 755.621094 348.203125 755.765625 344.492188 C 755.957031 340.808594 758 337.476562 761.203125 335.667969 C 802.792969 312.257812 828.601562 268.558594 828.601562 221.597656 C 828.601562 181.859375 810.882812 144.671875 780.019531 119.558594 C 749.152344 94.464844 708.570312 84.835938 668.75 93.136719 C 646.777344 97.730469 626.84375 108.6875 610.261719 123.433594 C 647.957031 160.875 669.296875 211.484375 669.296875 265.253906 C 669.296875 331.285156 635.863281 393.101562 581.019531 430.246094 C 637.632812 469.605469 681.402344 523.253906 709.066406 584.261719 L 883.695312 584.261719 C 885.859375 495.695312 843.082031 410.851562 769.695312 360.234375 Z M 769.695312 360.234375 " fill-opacity="1" fill-rule="nonzero"/><path fill="#ffe494" d="M 359.980469 430.246094 C 305.15625 393.101562 271.699219 331.285156 271.699219 265.253906 C 271.699219 211.484375 293.0625 160.875 330.734375 123.433594 C 314.175781 108.6875 294.242188 97.730469 272.269531 93.136719 C 232.449219 84.835938 191.867188 94.464844 160.980469 119.558594 C 130.113281 144.671875 112.414062 181.859375 112.414062 221.597656 C 112.414062 268.558594 138.226562 312.257812 179.796875 335.667969 C 183.019531 337.476562 185.0625 340.808594 185.230469 344.492188 C 185.398438 348.203125 183.671875 351.699219 180.617188 353.808594 L 171.304688 360.234375 C 97.933594 410.851562 55.15625 495.695312 57.324219 584.261719 L 231.941406 584.261719 C 259.597656 523.25 303.375 469.597656 359.980469 430.246094 Z M 359.980469 430.246094 " fill-opacity="1" fill-rule="nonzero"/></svg>