<svg xmlns="http://www.w3.org/2000/svg" xmlns:xlink="http://www.w3.org/1999/xlink" width="1366" zoomAndPan="magnify" viewBox="0 0 1024.5 1024.500009" height="1366" preserveAspectRatio="xMidYMid meet" version="1.0"><defs><clipPath id="7785538b40"><path d="M 41.320312 63.089844 L 842 63.089844 L 842 232 L 41.320312 232 Z M 41.320312 63.089844 " clip-rule="nonzero"/></clipPath><clipPath id="c1f3c95440"><path d="M 265 63.089844 L 937 63.089844 L 937 484 L 265 484 Z M 265 63.089844 " clip-rule="nonzero"/></clipPath><clipPath id="93a267fd42"><path d="M 304 696 L 398 696 L 398 769 L 304 769 Z M 304 696 " clip-rule="nonzero"/></clipPath><clipPath id="02ca56534a"><path d="M 304.632812 693.214844 L 399.042969 696.109375 L 396.769531 770.285156 L 302.359375 767.390625 Z M 304.632812 693.214844 " clip-rule="nonzero"/></clipPath><clipPath id="e53ce16f53"><path d="M 304.632812 693.214844 L 399.042969 696.109375 L 396.769531 770.285156 L 302.359375 767.390625 Z M 304.632812 693.214844 " clip-rule="nonzero"/></clipPath><clipPath id="7102dd2c80"><path d="M 304.632812 693.214844 L 399.042969 696.109375 L 396.769531 770.285156 L 302.359375 767.390625 Z M 304.632812 693.214844 " clip-rule="nonzero"/></clipPath></defs><path fill="#ffe69b" d="M 382.546875 322.058594 L 289.804688 322.058594 L 289.804688 414.800781 L 382.546875 414.800781 Z M 382.546875 322.058594 " fill-opacity="1" fill-rule="nonzero"/><path fill="#ffe69b" d="M 382.546875 512 L 289.804688 512 L 289.804688 604.742188 L 382.546875 604.742188 Z M 382.546875 512 " fill-opacity="1" fill-rule="nonzero"/><path fill="#ffe69b" d="M 382.546875 701.941406 L 289.804688 701.941406 L 289.804688 794.683594 L 382.546875 794.683594 Z M 382.546875 701.941406 " fill-opacity="1" fill-rule="nonzero"/><path fill="#ffe69b" d="M 827.402344 77.507812 L 184.894531 77.507812 C 113.480469 77.507812 55.566406 125.816406 55.566406 185.417969 L 55.566406 217.722656 L 698.074219 217.722656 L 698.074219 185.417969 C 698.074219 125.816406 755.96875 77.507812 827.402344 77.507812 Z M 827.402344 77.507812 " fill-opacity="1" fill-rule="nonzero"/><g clip-path="url(#7785538b40)"><path fill="#000000" d="M 698.074219 231.894531 L 55.566406 231.894531 C 51.808594 231.894531 48.203125 230.402344 45.546875 227.746094 C 42.890625 225.089844 41.394531 221.484375 41.394531 217.726562 L 41.394531 185.417969 C 41.394531 118.105469 105.769531 63.339844 184.894531 63.339844 L 827.402344 63.339844 C 831.160156 63.339844 834.765625 64.832031 837.421875 67.488281 C 840.078125 70.148438 841.574219 73.75 841.574219 77.507812 C 841.574219 81.265625 840.078125 84.871094 837.421875 87.527344 C 834.765625 90.183594 831.160156 91.679688 827.402344 91.679688 C 763.902344 91.679688 712.242188 133.730469 712.242188 185.417969 L 712.242188 217.726562 C 712.242188 219.585938 711.875 221.429688 711.164062 223.148438 C 710.453125 224.867188 709.40625 226.429688 708.09375 227.746094 C 706.777344 229.0625 705.214844 230.105469 703.496094 230.816406 C 701.777344 231.527344 699.933594 231.894531 698.074219 231.894531 Z M 69.734375 203.558594 L 683.902344 203.558594 L 683.902344 185.417969 C 683.902344 147.792969 704.015625 114.089844 735.574219 91.679688 L 184.894531 91.679688 C 121.394531 91.679688 69.734375 133.730469 69.734375 185.417969 Z M 69.734375 203.558594 " fill-opacity="1" fill-rule="nonzero"/></g><g clip-path="url(#c1f3c95440)"><path fill="#000000" d="M 922.335938 483.277344 C 918.578125 483.277344 914.976562 481.78125 912.320312 479.125 C 909.660156 476.46875 908.167969 472.867188 908.167969 469.105469 L 908.167969 185.59375 C 908.140625 160.691406 898.238281 136.820312 880.628906 119.214844 C 863.023438 101.605469 839.152344 91.703125 814.25 91.675781 L 279.839844 91.675781 C 276.082031 91.675781 272.476562 90.183594 269.820312 87.523438 C 267.164062 84.867188 265.671875 81.261719 265.671875 77.503906 C 265.671875 73.746094 267.164062 70.144531 269.820312 67.488281 C 272.476562 64.828125 276.082031 63.335938 279.839844 63.335938 L 814.25 63.335938 C 846.664062 63.375 877.738281 76.265625 900.65625 99.183594 C 923.578125 122.105469 936.46875 153.179688 936.507812 185.59375 L 936.507812 469.105469 C 936.507812 472.867188 935.015625 476.46875 932.355469 479.125 C 929.699219 481.78125 926.09375 483.277344 922.335938 483.277344 Z M 922.335938 483.277344 " fill-opacity="1" fill-rule="nonzero"/></g><path fill="#000000" d="M 922.34375 960.65625 L 203.703125 960.65625 C 199.945312 960.65625 196.339844 959.164062 193.683594 956.507812 C 191.027344 953.851562 189.535156 950.246094 189.535156 946.488281 L 189.535156 217.71875 C 189.535156 213.960938 191.027344 210.355469 193.683594 207.699219 C 196.339844 205.042969 199.945312 203.550781 203.703125 203.550781 C 207.460938 203.550781 211.066406 205.042969 213.722656 207.699219 C 216.378906 210.355469 217.871094 213.960938 217.871094 217.71875 L 217.871094 932.320312 L 922.34375 932.320312 C 926.101562 932.320312 929.703125 933.8125 932.359375 936.46875 C 935.019531 939.125 936.511719 942.730469 936.511719 946.488281 C 936.511719 950.246094 935.019531 953.851562 932.359375 956.507812 C 929.703125 959.164062 926.101562 960.65625 922.34375 960.65625 Z M 922.34375 960.65625 " fill-opacity="1" fill-rule="nonzero"/><path fill="#000000" d="M 382.546875 428.96875 L 289.804688 428.96875 C 286.046875 428.96875 282.441406 427.476562 279.785156 424.820312 C 277.128906 422.164062 275.632812 418.558594 275.632812 414.800781 L 275.632812 322.058594 C 275.632812 318.300781 277.128906 314.695312 279.785156 312.039062 C 282.441406 309.382812 286.046875 307.890625 289.804688 307.890625 L 382.546875 307.890625 C 386.304688 307.890625 389.90625 309.382812 392.5625 312.039062 C 395.222656 314.695312 396.714844 318.300781 396.714844 322.058594 L 396.714844 414.800781 C 396.714844 418.558594 395.222656 422.164062 392.5625 424.820312 C 389.90625 427.476562 386.304688 428.96875 382.546875 428.96875 Z M 303.972656 400.632812 L 368.375 400.632812 L 368.375 336.230469 L 303.972656 336.230469 Z M 303.972656 400.632812 " fill-opacity="1" fill-rule="nonzero"/><path fill="#000000" d="M 818.636719 382.597656 L 449.632812 382.597656 C 445.875 382.597656 442.273438 381.105469 439.613281 378.449219 C 436.957031 375.792969 435.464844 372.1875 435.464844 368.429688 C 435.464844 364.671875 436.957031 361.070312 439.613281 358.410156 C 442.273438 355.753906 445.875 354.261719 449.632812 354.261719 L 818.636719 354.261719 C 822.394531 354.261719 825.996094 355.753906 828.652344 358.410156 C 831.3125 361.070312 832.804688 364.671875 832.804688 368.429688 C 832.804688 372.1875 831.3125 375.792969 828.652344 378.449219 C 825.996094 381.105469 822.394531 382.597656 818.636719 382.597656 Z M 818.636719 382.597656 " fill-opacity="1" fill-rule="nonzero"/><path fill="#000000" d="M 382.546875 618.910156 L 289.804688 618.910156 C 286.046875 618.910156 282.441406 617.417969 279.785156 614.761719 C 277.128906 612.105469 275.632812 608.5 275.632812 604.742188 L 275.632812 512 C 275.632812 508.242188 277.128906 504.636719 279.785156 501.980469 C 282.441406 499.324219 286.046875 497.832031 289.804688 497.832031 L 382.546875 497.832031 C 386.304688 497.832031 389.90625 499.324219 392.5625 501.980469 C 395.222656 504.636719 396.714844 508.242188 396.714844 512 L 396.714844 604.742188 C 396.714844 608.5 395.222656 612.105469 392.5625 614.761719 C 389.90625 617.417969 386.304688 618.910156 382.546875 618.910156 Z M 303.972656 590.574219 L 368.375 590.574219 L 368.375 526.167969 L 303.972656 526.167969 Z M 303.972656 590.574219 " fill-opacity="1" fill-rule="nonzero"/><path fill="#000000" d="M 382.546875 808.851562 L 289.804688 808.851562 C 286.046875 808.851562 282.441406 807.359375 279.785156 804.699219 C 277.128906 802.042969 275.632812 798.4375 275.632812 794.679688 L 275.632812 701.941406 C 275.632812 698.183594 277.128906 694.582031 279.785156 691.921875 C 282.441406 689.265625 286.046875 687.773438 289.804688 687.773438 L 382.546875 687.773438 C 386.304688 687.773438 389.90625 689.265625 392.5625 691.921875 C 395.222656 694.582031 396.714844 698.183594 396.714844 701.941406 L 396.714844 794.679688 C 396.714844 798.4375 395.222656 802.042969 392.5625 804.699219 C 389.90625 807.359375 386.304688 808.851562 382.546875 808.851562 Z M 303.972656 780.511719 L 368.375 780.511719 L 368.375 716.109375 L 303.972656 716.109375 Z M 303.972656 780.511719 " fill-opacity="1" fill-rule="nonzero"/><path fill="#000000" d="M 336.183594 389.503906 C 334.015625 389.507812 331.878906 389.011719 329.933594 388.058594 C 327.988281 387.105469 326.285156 385.714844 324.960938 384 L 308.191406 362.296875 C 307.035156 360.824219 306.183594 359.140625 305.683594 357.339844 C 305.1875 355.539062 305.046875 353.65625 305.277344 351.800781 C 305.507812 349.945312 306.105469 348.15625 307.03125 346.53125 C 307.957031 344.90625 309.195312 343.484375 310.675781 342.339844 C 312.152344 341.195312 313.84375 340.355469 315.648438 339.871094 C 317.453125 339.382812 319.335938 339.257812 321.191406 339.503906 C 323.042969 339.746094 324.832031 340.355469 326.449219 341.292969 C 328.066406 342.234375 329.480469 343.480469 330.613281 344.96875 L 338.957031 355.765625 L 404.449219 307.984375 C 407.484375 305.765625 411.273438 304.847656 414.988281 305.429688 C 418.699219 306.007812 422.03125 308.042969 424.246094 311.078125 C 426.460938 314.113281 427.378906 317.90625 426.796875 321.617188 C 426.21875 325.332031 424.1875 328.660156 421.148438 330.875 L 344.523438 386.785156 C 342.101562 388.554688 339.183594 389.507812 336.183594 389.503906 Z M 336.183594 389.503906 " fill-opacity="1" fill-rule="nonzero"/><path fill="#000000" d="M 336.183594 580.761719 C 334.015625 580.765625 331.878906 580.269531 329.933594 579.316406 C 327.988281 578.359375 326.285156 576.972656 324.960938 575.257812 L 308.191406 553.550781 C 307.035156 552.082031 306.183594 550.398438 305.683594 548.59375 C 305.1875 546.792969 305.046875 544.910156 305.277344 543.054688 C 305.507812 541.199219 306.105469 539.410156 307.03125 537.785156 C 307.957031 536.160156 309.195312 534.738281 310.675781 533.59375 C 312.152344 532.453125 313.84375 531.613281 315.648438 531.125 C 317.453125 530.640625 319.335938 530.515625 321.191406 530.757812 C 323.042969 531.003906 324.832031 531.613281 326.449219 532.550781 C 328.066406 533.488281 329.480469 534.734375 330.613281 536.222656 L 338.957031 547.023438 L 404.449219 499.238281 C 405.949219 498.140625 407.65625 497.351562 409.464844 496.914062 C 411.273438 496.476562 413.148438 496.398438 414.988281 496.683594 C 416.828125 496.972656 418.589844 497.617188 420.179688 498.585938 C 421.765625 499.558594 423.148438 500.828125 424.246094 502.332031 C 425.34375 503.835938 426.132812 505.542969 426.570312 507.347656 C 427.007812 509.15625 427.085938 511.035156 426.796875 512.875 C 426.511719 514.710938 425.863281 516.476562 424.894531 518.0625 C 423.925781 519.652344 422.652344 521.035156 421.148438 522.132812 L 344.523438 578.039062 C 342.101562 579.808594 339.183594 580.761719 336.183594 580.761719 Z M 336.183594 580.761719 " fill-opacity="1" fill-rule="nonzero"/><path fill="#000000" d="M 336.183594 772.015625 C 334.015625 772.019531 331.878906 771.523438 329.933594 770.570312 C 327.988281 769.617188 326.285156 768.226562 324.960938 766.511719 L 308.191406 744.808594 C 307.035156 743.335938 306.183594 741.652344 305.683594 739.851562 C 305.1875 738.050781 305.046875 736.167969 305.277344 734.3125 C 305.507812 732.457031 306.105469 730.664062 307.03125 729.042969 C 307.957031 727.417969 309.195312 725.992188 310.675781 724.851562 C 312.152344 723.707031 313.84375 722.867188 315.648438 722.382812 C 317.453125 721.894531 319.335938 721.769531 321.191406 722.015625 C 323.042969 722.257812 324.832031 722.867188 326.449219 723.804688 C 328.066406 724.746094 329.480469 725.992188 330.613281 727.480469 L 338.957031 738.277344 L 404.449219 690.496094 C 405.949219 689.398438 407.65625 688.609375 409.464844 688.171875 C 411.273438 687.734375 413.148438 687.65625 414.988281 687.941406 C 416.828125 688.230469 418.589844 688.878906 420.179688 689.847656 C 421.765625 690.816406 423.148438 692.085938 424.246094 693.589844 C 425.34375 695.09375 426.132812 696.796875 426.570312 698.605469 C 427.007812 700.414062 427.085938 702.292969 426.796875 704.128906 C 426.511719 705.96875 425.863281 707.734375 424.894531 709.320312 C 423.925781 710.910156 422.652344 712.292969 421.148438 713.386719 L 344.523438 769.296875 C 342.101562 771.066406 339.183594 772.019531 336.183594 772.015625 Z M 336.183594 772.015625 " fill-opacity="1" fill-rule="nonzero"/><path fill="#ffc6c6" d="M 957.878906 766.902344 C 944.203125 815.074219 915.785156 871.667969 857.675781 871.667969 C 837.148438 871.667969 812.921875 864.601562 784.308594 847.617188 C 755.699219 864.601562 731.472656 871.667969 710.945312 871.667969 C 652.835938 871.667969 624.421875 815.074219 610.761719 766.902344 C 597.855469 721.773438 597.871094 673.921875 610.804688 628.796875 C 654.003906 480.878906 782.214844 558.5 784.289062 559.753906 L 784.308594 559.773438 C 784.308594 559.773438 914.273438 479.667969 957.839844 628.796875 C 970.765625 673.921875 970.777344 721.769531 957.878906 766.902344 Z M 957.878906 766.902344 " fill-opacity="1" fill-rule="nonzero"/><path fill="#000000" d="M 710.882812 885.84375 C 698.960938 885.90625 687.140625 883.6875 676.058594 879.300781 C 640.539062 865.148438 613.246094 827.617188 597.121094 770.773438 C 583.40625 723.085938 583.433594 672.496094 597.199219 624.820312 C 611.480469 575.921875 636.292969 544.371094 670.957031 531.042969 C 717.144531 513.28125 765.992188 534.148438 784.316406 543.59375 C 802.640625 534.148438 851.488281 513.28125 897.675781 531.042969 C 932.335938 544.371094 957.152344 575.921875 971.433594 624.820312 C 985.199219 672.492188 985.226562 723.085938 971.511719 770.773438 C 955.386719 827.621094 928.09375 865.148438 892.574219 879.300781 C 861.558594 891.660156 825.171875 886.488281 784.316406 863.945312 C 757.890625 878.53125 733.324219 885.84375 710.882812 885.84375 Z M 709.757812 552.464844 C 699.941406 552.363281 690.1875 554.085938 681 557.542969 C 655.09375 567.5625 636.050781 592.871094 624.398438 632.765625 C 612.128906 675.324219 612.125 720.480469 624.382812 763.042969 C 633.890625 796.554688 652.390625 839.367188 686.546875 852.976562 C 710.777344 862.632812 741.238281 856.730469 777.078125 835.4375 C 779.269531 834.136719 781.769531 833.449219 784.316406 833.449219 C 786.863281 833.449219 789.363281 834.136719 791.554688 835.4375 C 827.394531 856.730469 857.851562 862.628906 882.082031 852.976562 C 916.242188 839.367188 934.742188 796.554688 944.25 763.042969 C 956.507812 720.480469 956.5 675.324219 944.234375 632.765625 C 932.582031 592.871094 913.539062 567.5625 887.632812 557.542969 C 843.746094 540.570312 792.246094 571.542969 791.726562 571.855469 C 789.492188 573.222656 786.921875 573.945312 784.300781 573.941406 C 781.683594 573.9375 779.113281 573.210938 776.878906 571.839844 C 776.496094 571.605469 744.660156 552.464844 709.757812 552.464844 Z M 709.757812 552.464844 " fill-opacity="1" fill-rule="nonzero"/><path fill="#000000" d="M 784.304688 573.945312 C 781.160156 573.945312 778.105469 572.894531 775.625 570.96875 C 773.140625 569.039062 771.371094 566.339844 770.589844 563.292969 C 769.832031 560.324219 752.332031 490.148438 781.273438 448.503906 C 793.15625 431.414062 810.683594 421.527344 833.378906 419.125 C 835.238281 418.90625 837.125 419.058594 838.925781 419.574219 C 840.730469 420.089844 842.414062 420.957031 843.875 422.128906 C 845.339844 423.296875 846.558594 424.746094 847.457031 426.390625 C 848.359375 428.035156 848.925781 429.839844 849.121094 431.703125 C 849.316406 433.570312 849.144531 435.453125 848.609375 437.25 C 848.074219 439.046875 847.183594 440.71875 845.996094 442.167969 C 844.808594 443.617188 843.347656 444.820312 841.691406 445.703125 C 840.039062 446.582031 838.226562 447.128906 836.359375 447.304688 C 822.039062 448.820312 811.640625 454.492188 804.570312 464.640625 C 786.671875 490.332031 793.792969 539.503906 798.050781 556.285156 C 798.578125 558.375 798.621094 560.5625 798.179688 562.675781 C 797.738281 564.785156 796.816406 566.769531 795.492188 568.472656 C 794.167969 570.175781 792.46875 571.554688 790.53125 572.503906 C 788.589844 573.453125 786.460938 573.945312 784.304688 573.945312 Z M 784.304688 573.945312 " fill-opacity="1" fill-rule="nonzero"/><path fill="#000000" d="M 643.414062 580.761719 L 469.824219 580.761719 C 466.0625 580.761719 462.460938 579.269531 459.804688 576.609375 C 457.144531 573.953125 455.652344 570.351562 455.652344 566.589844 C 455.652344 562.832031 457.144531 559.230469 459.804688 556.574219 C 462.460938 553.914062 466.0625 552.421875 469.824219 552.421875 L 643.414062 552.421875 C 647.171875 552.421875 650.773438 553.914062 653.429688 556.574219 C 656.089844 559.230469 657.582031 562.832031 657.582031 566.589844 C 657.582031 570.351562 656.089844 573.953125 653.429688 576.609375 C 650.773438 579.269531 647.171875 580.761719 643.414062 580.761719 Z M 643.414062 580.761719 " fill-opacity="1" fill-rule="nonzero"/><path fill="#000000" d="M 608.375 772.015625 L 469.824219 772.015625 C 466.0625 772.015625 462.460938 770.523438 459.804688 767.867188 C 457.144531 765.210938 455.652344 761.605469 455.652344 757.847656 C 455.652344 754.089844 457.144531 750.484375 459.804688 747.828125 C 462.460938 745.171875 466.0625 743.679688 469.824219 743.679688 L 608.375 743.679688 C 612.132812 743.679688 615.738281 745.171875 618.394531 747.828125 C 621.050781 750.484375 622.542969 754.089844 622.542969 757.847656 C 622.542969 761.605469 621.050781 765.210938 618.394531 767.867188 C 615.738281 770.523438 612.132812 772.015625 608.375 772.015625 Z M 608.375 772.015625 " fill-opacity="1" fill-rule="nonzero"/><g clip-path="url(#93a267fd42)"><g clip-path="url(#02ca56534a)"><g clip-path="url(#e53ce16f53)"><g clip-path="url(#7102dd2c80)"><path fill="#000000" d="M 394.796875 698.660156 L 394.226562 698.203125 C 392.375 696.605469 390.058594 695.875 387.863281 696.027344 C 385.519531 696.175781 383.371094 697.136719 381.78125 698.921875 L 361.355469 721.597656 L 349.238281 735.371094 L 340.378906 745.429688 L 334.726562 739.027344 L 331.546875 735.488281 L 320.382812 723.054688 C 318.757812 721.246094 316.59375 720.296875 314.261719 720.082031 C 312.074219 719.867188 309.707031 720.746094 307.980469 722.304688 L 307.378906 722.875 C 303.699219 726.058594 303.449219 731.765625 306.628906 735.382812 L 317.652344 747.738281 L 320.828125 751.425781 L 333.546875 765.667969 C 335.03125 767.25 337.046875 768.339844 339.015625 768.472656 C 339.160156 768.476562 339.160156 768.476562 339.234375 768.480469 C 339.378906 768.484375 339.453125 768.484375 339.671875 768.492188 C 339.671875 768.492188 339.671875 768.492188 339.816406 768.496094 C 340.183594 768.507812 340.472656 768.515625 340.914062 768.53125 C 343.253906 768.382812 345.40625 767.421875 346.992188 765.640625 L 367.277344 742.957031 L 375.226562 733.894531 L 395.511719 711.210938 C 398.691406 707.574219 398.421875 701.996094 394.796875 698.660156 Z M 394.796875 698.660156 " fill-opacity="1" fill-rule="nonzero"/></g></g></g></g></svg>