<svg xmlns="http://www.w3.org/2000/svg" xmlns:xlink="http://www.w3.org/1999/xlink" width="1366" zoomAndPan="magnify" viewBox="0 0 1024.5 1024.500009" height="1366" preserveAspectRatio="xMidYMid meet" version="1.0"><defs><clipPath id="b643bb50e2"><path d="M 198 78 L 906.339844 78 L 906.339844 946 L 198 946 Z M 198 78 " clip-rule="nonzero"/></clipPath><clipPath id="6cb7dbd2fa"><path d="M 117.722656 65.859375 L 270 65.859375 L 270 957.925781 L 117.722656 957.925781 Z M 117.722656 65.859375 " clip-rule="nonzero"/></clipPath></defs><path fill="#ffc6c6" d="M 872.824219 933.039062 L 231.664062 933.039062 C 220.21875 933.039062 210.933594 923.753906 210.933594 912.3125 L 210.933594 112.195312 C 210.933594 100.75 220.21875 91.464844 231.664062 91.464844 L 872.824219 91.464844 C 884.269531 91.464844 893.550781 100.75 893.550781 112.195312 L 893.550781 912.054688 C 893.550781 923.753906 884.269531 933.039062 872.824219 933.039062 Z M 872.824219 933.039062 " fill-opacity="1" fill-rule="nonzero"/><g clip-path="url(#b643bb50e2)"><path fill="#000000" d="M 872.824219 945.753906 L 231.664062 945.753906 C 213.222656 945.753906 198.21875 930.75 198.21875 912.3125 L 198.21875 112.195312 C 198.21875 93.753906 213.222656 78.75 231.664062 78.75 L 872.824219 78.75 C 891.261719 78.75 906.269531 93.753906 906.269531 112.195312 L 906.269531 912.054688 C 906.269531 930.621094 891.261719 945.753906 872.824219 945.753906 Z M 231.664062 104.183594 C 227.210938 104.183594 223.652344 107.742188 223.652344 112.195312 L 223.652344 912.3125 C 223.652344 916.761719 227.210938 920.320312 231.664062 920.320312 L 872.824219 920.320312 C 877.277344 920.320312 880.835938 916.632812 880.835938 912.054688 L 880.835938 112.195312 C 880.835938 107.742188 877.277344 104.183594 872.824219 104.183594 Z M 231.664062 104.183594 " fill-opacity="1" fill-rule="nonzero"/></g><path fill="#ffbad5" d="M 256.839844 933.039062 C 256.839844 933.039062 247.558594 945.375 193.640625 945.375 C 148.117188 945.375 130.441406 933.039062 130.441406 933.039062 L 130.441406 91.210938 C 130.441406 91.210938 144.429688 78.621094 193.640625 78.621094 C 240.820312 78.621094 256.839844 91.210938 256.839844 91.210938 Z M 256.839844 933.039062 " fill-opacity="1" fill-rule="nonzero"/><g clip-path="url(#6cb7dbd2fa)"><path fill="#000000" d="M 193.640625 958.089844 C 145.445312 958.089844 125.355469 944.992188 123.191406 943.464844 C 119.757812 941.050781 117.722656 937.234375 117.722656 933.039062 L 117.722656 91.210938 C 117.722656 87.652344 119.25 84.21875 121.921875 81.800781 C 124.84375 79.132812 142.140625 65.90625 193.640625 65.90625 C 243.742188 65.90625 262.691406 79.640625 264.726562 81.164062 C 267.777344 83.582031 269.558594 87.269531 269.558594 91.210938 L 269.558594 933.039062 C 269.558594 935.835938 268.667969 938.507812 267.015625 940.667969 C 263.074219 945.882812 248.066406 958.089844 193.640625 958.089844 Z M 143.15625 925.152344 C 150.914062 928.207031 166.9375 932.65625 193.640625 932.65625 C 223.90625 932.65625 238.148438 928.585938 244.125 926.042969 L 244.125 98.839844 C 236.875 95.917969 221.234375 91.339844 193.640625 91.339844 C 165.15625 91.339844 150.023438 95.789062 143.15625 98.585938 Z M 247.6875 924.265625 Z M 247.6875 924.265625 " fill-opacity="1" fill-rule="nonzero"/></g><path fill="#ffe494" d="M 823.484375 878.867188 L 314.957031 878.867188 C 306.054688 878.867188 298.804688 871.617188 298.804688 862.714844 L 298.804688 845.421875 C 298.804688 836.519531 306.054688 829.273438 314.957031 829.273438 L 823.484375 829.273438 C 832.386719 829.273438 839.636719 836.519531 839.636719 845.421875 L 839.636719 862.714844 C 839.378906 871.617188 832.386719 878.867188 823.484375 878.867188 Z M 823.484375 878.867188 " fill-opacity="1" fill-rule="nonzero"/><path fill="#000000" d="M 823.484375 891.582031 L 314.957031 891.582031 C 299.058594 891.582031 286.089844 878.613281 286.089844 862.714844 L 286.089844 845.421875 C 286.089844 829.527344 299.058594 816.554688 314.957031 816.554688 L 823.484375 816.554688 C 839.378906 816.554688 852.351562 829.527344 852.351562 845.421875 L 852.351562 862.714844 C 852.351562 862.84375 852.351562 862.972656 852.351562 863.097656 C 851.84375 879.121094 839.253906 891.582031 823.484375 891.582031 Z M 314.957031 841.988281 C 313.046875 841.988281 311.523438 843.515625 311.523438 845.421875 L 311.523438 862.714844 C 311.523438 864.625 313.046875 866.148438 314.957031 866.148438 L 823.484375 866.148438 C 825.519531 866.148438 826.792969 864.242188 826.917969 862.460938 L 826.917969 845.421875 C 826.917969 843.515625 825.390625 841.988281 823.484375 841.988281 Z M 314.957031 841.988281 " fill-opacity="1" fill-rule="nonzero"/><path fill="#ffe494" d="M 788.894531 336.257812 C 788.894531 280.941406 745.277344 236.179688 691.363281 236.179688 C 670.761719 236.179688 651.6875 242.792969 635.917969 253.855469 C 620.148438 242.664062 601.074219 236.179688 580.472656 236.179688 C 554.660156 236.179688 531.261719 246.480469 513.839844 263.136719 C 496.417969 246.351562 473.019531 236.179688 447.207031 236.179688 C 393.289062 236.179688 349.671875 280.941406 349.671875 336.257812 C 349.671875 377.078125 373.449219 412.046875 407.53125 427.6875 L 407.53125 509.328125 C 407.53125 528.402344 421.644531 544.679688 440.59375 547.09375 C 470.730469 551.039062 518.164062 555.996094 569.285156 555.996094 C 628.160156 555.996094 671.398438 551.671875 698.355469 547.859375 C 717.175781 545.1875 731.164062 529.039062 731.164062 510.089844 L 731.164062 427.5625 C 765.117188 412.046875 788.894531 376.949219 788.894531 336.257812 Z M 788.894531 336.257812 " fill-opacity="1" fill-rule="nonzero"/><path fill="#000000" d="M 569.285156 568.714844 C 518.546875 568.714844 470.351562 563.753906 438.941406 559.683594 C 413.761719 556.503906 394.816406 534.761719 394.816406 509.328125 L 394.816406 435.445312 C 359.464844 415.863281 336.953125 377.710938 336.953125 336.257812 C 336.953125 274.074219 386.421875 223.460938 447.207031 223.460938 C 471.496094 223.460938 494.765625 231.472656 513.839844 246.351562 C 532.914062 231.472656 556.1875 223.460938 580.472656 223.460938 C 600.183594 223.460938 619.132812 228.675781 635.917969 238.722656 C 652.832031 228.675781 671.777344 223.460938 691.359375 223.460938 C 752.144531 223.460938 801.613281 274.074219 801.613281 336.257812 C 801.613281 377.839844 779.230469 415.863281 743.878906 435.316406 L 743.878906 510.089844 C 743.878906 535.269531 725.058594 556.886719 700.136719 560.449219 C 673.429688 564.261719 629.179688 568.714844 569.285156 568.714844 Z M 447.207031 248.894531 C 400.410156 248.894531 362.386719 288.0625 362.386719 336.257812 C 362.386719 370.71875 382.226562 402.128906 412.871094 416.117188 C 417.449219 418.152344 420.246094 422.730469 420.246094 427.6875 L 420.246094 509.328125 C 420.246094 522.042969 429.65625 532.851562 442.246094 534.507812 C 473.019531 538.574219 519.945312 543.28125 569.285156 543.28125 C 627.652344 543.28125 670.761719 538.957031 696.574219 535.269531 C 709.039062 533.488281 718.449219 522.679688 718.449219 510.089844 L 718.449219 427.5625 C 718.449219 422.601562 721.371094 418.023438 725.824219 415.988281 C 756.34375 402 776.179688 370.71875 776.179688 336.257812 C 776.179688 288.0625 738.15625 248.894531 691.359375 248.894531 C 674.195312 248.894531 657.535156 254.234375 643.167969 264.28125 C 638.714844 267.335938 632.867188 267.335938 628.542969 264.28125 C 614.425781 254.234375 597.769531 248.894531 580.472656 248.894531 C 558.984375 248.894531 538.382812 257.160156 522.613281 272.292969 C 517.65625 277 509.898438 277 505.066406 272.292969 C 489.296875 257.160156 468.824219 248.894531 447.207031 248.894531 Z M 447.207031 248.894531 " fill-opacity="1" fill-rule="nonzero"/><path fill="#000000" d="M 469.585938 444.726562 C 462.972656 444.726562 457.507812 450.195312 457.507812 456.808594 L 457.507812 515.6875 C 457.507812 522.296875 462.972656 527.765625 469.585938 527.765625 C 472.894531 527.765625 476.074219 526.367188 478.363281 524.078125 C 480.523438 521.789062 481.792969 518.738281 481.667969 515.6875 L 481.667969 456.9375 C 481.667969 450.195312 476.199219 444.726562 469.585938 444.726562 Z M 469.585938 444.726562 " fill-opacity="1" fill-rule="nonzero"/><path fill="#000000" d="M 535.96875 444.726562 C 529.355469 444.726562 523.886719 450.195312 523.886719 456.808594 L 523.886719 515.6875 C 523.886719 522.296875 529.355469 527.765625 535.96875 527.765625 C 539.273438 527.765625 542.453125 526.367188 544.742188 524.078125 C 546.902344 521.789062 548.175781 518.738281 548.046875 515.6875 L 548.046875 456.9375 C 548.046875 450.195312 542.578125 444.726562 535.96875 444.726562 Z M 535.96875 444.726562 " fill-opacity="1" fill-rule="nonzero"/><path fill="#000000" d="M 602.472656 444.726562 C 595.859375 444.726562 590.394531 450.195312 590.394531 456.808594 L 590.394531 515.6875 C 590.394531 522.296875 595.859375 527.765625 602.472656 527.765625 C 609.085938 527.765625 614.554688 522.296875 614.554688 515.6875 L 614.554688 456.808594 C 614.554688 450.195312 609.085938 444.726562 602.472656 444.726562 Z M 602.472656 444.726562 " fill-opacity="1" fill-rule="nonzero"/><path fill="#000000" d="M 668.851562 444.726562 C 662.242188 444.726562 656.773438 450.195312 656.773438 456.808594 L 656.773438 515.6875 C 656.773438 522.296875 662.242188 527.765625 668.851562 527.765625 C 675.464844 527.765625 680.933594 522.296875 680.933594 515.6875 L 680.933594 456.808594 C 680.933594 450.195312 675.464844 444.726562 668.851562 444.726562 Z M 668.851562 444.726562 " fill-opacity="1" fill-rule="nonzero"/><path fill="#000000" d="M 451.785156 713.933594 C 450.894531 711.136719 450.003906 707.832031 449.242188 704.398438 L 447.84375 697.785156 C 446.0625 690.28125 443.390625 684.6875 439.703125 681.125 C 444.410156 677.691406 451.53125 670.570312 451.53125 657.726562 C 451.53125 648.953125 448.730469 641.578125 443.265625 636.617188 C 437.03125 630.769531 428.511719 628.226562 415.414062 628.226562 C 410.328125 628.226562 404.734375 628.480469 398.757812 629.117188 C 393.035156 629.753906 388.839844 634.585938 388.839844 640.304688 L 388.839844 716.605469 C 388.839844 722.835938 393.925781 727.921875 400.15625 727.921875 C 406.386719 727.921875 411.472656 722.835938 411.472656 716.605469 L 411.472656 690.410156 L 415.160156 690.410156 C 420.5 690.535156 423.933594 691.425781 426.351562 703.378906 C 428.003906 711.265625 429.277344 716.605469 430.039062 719.65625 C 431.4375 724.617188 435.886719 727.921875 440.976562 727.921875 C 444.535156 727.921875 447.714844 726.398438 449.875 723.597656 C 452.039062 720.929688 452.800781 717.367188 452.039062 713.933594 C 451.910156 714.0625 451.785156 714.0625 451.785156 713.933594 Z M 428.765625 659.382812 C 428.765625 666.375 424.0625 670.570312 416.179688 670.570312 L 411.089844 670.570312 L 411.089844 648.699219 C 412.617188 648.574219 414.398438 648.445312 416.558594 648.445312 C 424.824219 648.574219 428.765625 652.132812 428.765625 659.382812 Z M 428.765625 659.382812 " fill-opacity="1" fill-rule="nonzero"/><path fill="#000000" d="M 504.558594 706.6875 L 480.523438 706.6875 L 480.523438 687.484375 L 500.871094 687.484375 C 506.71875 687.484375 511.425781 682.78125 511.425781 676.929688 C 511.425781 671.082031 506.71875 666.375 500.871094 666.375 L 480.523438 666.375 L 480.523438 650.480469 L 502.648438 650.480469 C 508.5 650.480469 513.203125 645.648438 513.203125 639.796875 C 513.203125 633.949219 508.5 629.242188 502.648438 629.242188 L 468.441406 629.242188 C 462.59375 629.242188 457.886719 633.949219 457.886719 639.796875 L 457.886719 717.496094 C 457.886719 723.34375 462.59375 728.050781 468.441406 728.050781 L 504.429688 728.050781 C 510.28125 728.050781 514.984375 723.21875 514.984375 717.367188 C 515.113281 714.441406 513.96875 711.773438 512.058594 709.738281 C 510.152344 707.832031 507.480469 706.6875 504.558594 706.6875 Z M 504.558594 706.6875 " fill-opacity="1" fill-rule="nonzero"/><path fill="#000000" d="M 564.832031 649.207031 C 567.886719 649.207031 570.683594 649.589844 573.351562 650.226562 C 576.152344 650.988281 579.074219 650.605469 581.492188 648.953125 C 583.90625 647.554688 585.6875 645.265625 586.324219 642.339844 C 586.324219 642.214844 586.324219 642.085938 586.324219 641.960938 C 586.960938 639.289062 586.578125 636.492188 585.179688 634.074219 C 583.78125 631.660156 581.492188 630.007812 578.949219 629.242188 C 574.878906 628.097656 569.792969 627.589844 564.195312 627.589844 C 535.585938 627.589844 516.382812 648.445312 516.382812 679.601562 C 516.382812 709.867188 534.3125 729.449219 562.164062 729.449219 C 570.429688 729.449219 576.023438 728.175781 578.695312 727.414062 C 583.90625 726.015625 587.214844 720.675781 586.324219 715.332031 C 585.816406 712.535156 584.160156 709.992188 581.617188 708.464844 C 579.074219 706.8125 576.277344 706.304688 573.609375 706.941406 C 570.554688 707.578125 567.503906 707.957031 564.707031 707.957031 C 549.191406 707.957031 539.910156 697.148438 539.910156 678.964844 C 539.910156 660.269531 549.191406 649.207031 564.832031 649.207031 Z M 564.832031 649.207031 " fill-opacity="1" fill-rule="nonzero"/><path fill="#000000" d="M 603.617188 629.117188 C 597.386719 629.117188 592.300781 634.203125 592.300781 640.433594 L 592.300781 716.730469 C 592.300781 722.964844 597.386719 728.050781 603.617188 728.050781 C 609.847656 728.050781 614.9375 722.964844 614.9375 716.730469 L 614.9375 640.433594 C 614.9375 634.203125 609.847656 629.117188 603.617188 629.117188 Z M 603.617188 629.117188 " fill-opacity="1" fill-rule="nonzero"/><path fill="#000000" d="M 678.136719 636.875 C 672.160156 631.277344 663.257812 628.351562 651.433594 628.351562 C 644.945312 628.351562 639.351562 628.609375 634.519531 629.242188 C 628.796875 629.878906 624.601562 634.710938 624.601562 640.433594 L 624.601562 716.730469 C 624.601562 722.964844 629.6875 728.050781 635.917969 728.050781 C 642.148438 728.050781 647.234375 722.964844 647.234375 716.730469 L 647.234375 693.96875 C 648.253906 694.097656 649.523438 694.097656 650.796875 694.097656 C 663.003906 694.097656 673.050781 690.28125 679.535156 683.035156 C 684.75 677.566406 687.546875 669.425781 687.546875 659.636719 C 687.417969 650.480469 683.984375 642.214844 678.136719 636.875 Z M 664.785156 660.398438 C 664.785156 668.792969 659.699219 673.496094 650.542969 673.496094 C 649.144531 673.496094 648 673.496094 646.980469 673.371094 L 646.980469 648.953125 C 648.378906 648.828125 650.03125 648.699219 651.8125 648.699219 C 660.460938 648.828125 664.785156 652.769531 664.785156 660.398438 Z M 664.785156 660.398438 " fill-opacity="1" fill-rule="nonzero"/><path fill="#000000" d="M 739.300781 706.6875 L 715.269531 706.6875 L 715.269531 687.484375 L 735.613281 687.484375 C 741.464844 687.484375 746.167969 682.78125 746.167969 676.929688 C 746.167969 671.082031 741.464844 666.375 735.613281 666.375 L 715.269531 666.375 L 715.269531 650.480469 L 737.523438 650.480469 C 743.371094 650.480469 748.078125 645.648438 748.078125 639.796875 C 748.078125 633.949219 743.371094 629.242188 737.523438 629.242188 L 703.316406 629.242188 C 697.464844 629.242188 692.761719 633.949219 692.761719 639.796875 L 692.761719 717.496094 C 692.761719 723.34375 697.464844 728.050781 703.316406 728.050781 L 739.300781 728.050781 C 745.152344 728.050781 749.855469 723.21875 749.855469 717.367188 C 749.855469 711.390625 745.277344 706.6875 739.300781 706.6875 Z M 739.300781 706.6875 " fill-opacity="1" fill-rule="nonzero"/></svg>