<svg xmlns="http://www.w3.org/2000/svg" xmlns:xlink="http://www.w3.org/1999/xlink" width="1366" zoomAndPan="magnify" viewBox="0 0 1024.5 1024.500009" height="1366" preserveAspectRatio="xMidYMid meet" version="1.0"><defs><clipPath id="fdcd859d97"><path d="M 65 42.808594 L 959.570312 42.808594 L 959.570312 981.351562 L 65 981.351562 Z M 65 42.808594 " clip-rule="nonzero"/></clipPath></defs><path fill="#ffd4d4" d="M 952.535156 223.84375 L 952.535156 915.644531 C 952.535156 947.839844 926.40625 973.96875 894.210938 973.96875 L 131.238281 973.96875 C 99.042969 973.96875 72.914062 947.839844 72.914062 915.644531 L 72.914062 223.84375 C 72.914062 191.652344 99.042969 165.519531 131.238281 165.519531 L 171.804688 165.519531 C 185.085938 165.519531 197.644531 160.753906 208.039062 152.816406 C 292.640625 88.285156 398.027344 50.027344 512.652344 50.027344 C 627.277344 50.027344 732.8125 88.285156 817.265625 152.816406 C 827.804688 160.753906 840.21875 165.519531 853.5 165.519531 L 894.210938 165.519531 C 926.40625 165.519531 952.535156 191.652344 952.535156 223.84375 Z M 952.535156 223.84375 " fill-opacity="1" fill-rule="nonzero"/><g clip-path="url(#fdcd859d97)"><path fill="#000000" d="M 894.203125 981.1875 L 131.238281 981.1875 C 95.101562 981.1875 65.695312 951.785156 65.695312 915.644531 L 65.695312 223.84375 C 65.695312 187.703125 95.101562 158.300781 131.238281 158.300781 L 171.796875 158.300781 C 183.019531 158.300781 194.042969 154.417969 203.660156 147.078125 C 293.085938 78.863281 399.921875 42.808594 512.648438 42.808594 C 625.519531 42.808594 732.371094 78.863281 821.65625 147.078125 C 831.382812 154.410156 842.40625 158.300781 853.503906 158.300781 L 894.203125 158.300781 C 930.339844 158.300781 959.746094 187.703125 959.746094 223.84375 L 959.746094 915.644531 C 959.746094 951.785156 930.339844 981.1875 894.203125 981.1875 Z M 131.238281 172.738281 C 103.054688 172.738281 80.128906 195.660156 80.128906 223.84375 L 80.128906 915.644531 C 80.128906 943.824219 103.054688 966.75 131.238281 966.75 L 894.203125 966.75 C 922.386719 966.75 945.3125 943.824219 945.3125 915.644531 L 945.3125 223.84375 C 945.3125 195.660156 922.386719 172.738281 894.203125 172.738281 L 853.503906 172.738281 C 839.25 172.738281 825.207031 167.84375 812.929688 158.582031 C 726.140625 92.277344 622.320312 57.246094 512.648438 57.246094 C 403.105469 57.246094 299.300781 92.277344 212.429688 158.554688 C 200.261719 167.832031 186.207031 172.738281 171.796875 172.738281 Z M 131.238281 172.738281 " fill-opacity="1" fill-rule="nonzero"/></g><path fill="#ffffff" d="M 894.210938 291.695312 L 894.210938 876.8125 C 894.210938 898.609375 876.597656 916.222656 854.800781 916.222656 L 170.652344 916.222656 C 148.851562 916.222656 131.238281 898.609375 131.238281 876.8125 L 130.660156 291.695312 C 130.660156 273.074219 145.675781 258.058594 164.296875 258.058594 L 202.554688 258.058594 C 217.136719 258.058594 230.707031 266.144531 237.492188 279.28125 L 297.546875 394.199219 C 313.425781 424.945312 344.898438 444.003906 379.402344 444.003906 C 390.085938 444.003906 400.625 442.125 410.730469 438.515625 C 444.800781 426.246094 479.160156 420.039062 512.796875 420.039062 C 546.433594 420.039062 580.792969 426.246094 614.71875 438.515625 C 624.824219 442.125 635.363281 444.003906 646.046875 444.003906 C 680.550781 444.003906 711.878906 425.089844 727.902344 394.488281 L 787.957031 279.28125 C 794.746094 266.289062 808.3125 258.058594 823.039062 258.058594 L 860.574219 258.058594 C 879.195312 258.058594 894.210938 273.074219 894.210938 291.695312 Z M 894.210938 291.695312 " fill-opacity="1" fill-rule="nonzero"/><path fill="#000000" d="M 854.800781 923.441406 L 170.65625 923.441406 C 144.941406 923.441406 124.019531 902.523438 124.019531 876.808594 L 123.441406 291.707031 C 123.441406 269.167969 141.769531 250.839844 164.296875 250.839844 L 202.558594 250.839844 C 220.042969 250.839844 235.886719 260.472656 243.910156 275.972656 L 303.953125 390.859375 C 318.589844 419.195312 347.488281 436.78125 379.40625 436.78125 C 389.179688 436.78125 398.890625 435.078125 408.308594 431.722656 C 477.953125 406.621094 547.867188 406.65625 617.175781 431.730469 C 626.5625 435.078125 636.277344 436.78125 646.046875 436.78125 C 677.839844 436.78125 706.753906 419.292969 721.5 391.140625 L 781.558594 275.949219 C 789.636719 260.464844 805.527344 250.839844 823.035156 250.839844 L 860.582031 250.839844 C 883.09375 250.839844 901.421875 269.167969 901.421875 291.699219 L 901.421875 876.808594 C 901.421875 902.523438 880.5 923.441406 854.800781 923.441406 Z M 164.296875 265.277344 C 149.734375 265.277344 137.878906 277.128906 137.878906 291.699219 L 138.457031 876.804688 C 138.457031 894.558594 152.90625 909.003906 170.65625 909.003906 L 854.800781 909.003906 C 872.550781 909.003906 886.984375 894.558594 886.984375 876.808594 L 886.984375 291.699219 C 886.984375 277.128906 875.144531 265.277344 860.582031 265.277344 L 823.035156 265.277344 C 810.925781 265.277344 799.945312 271.925781 794.359375 282.625 L 734.300781 397.824219 C 717.046875 430.761719 683.238281 451.21875 646.046875 451.21875 C 634.628906 451.21875 623.265625 449.230469 612.296875 445.3125 C 546.035156 421.351562 479.675781 421.34375 413.1875 445.304688 C 402.191406 449.230469 390.828125 451.21875 379.40625 451.21875 C 342.0625 451.21875 308.238281 430.636719 291.140625 397.511719 L 231.09375 282.625 C 225.554688 271.917969 214.628906 265.277344 202.558594 265.277344 Z M 164.296875 265.277344 " fill-opacity="1" fill-rule="nonzero"/><path fill="#ffffff" d="M 749.3125 228.699219 L 676.746094 367.703125 C 668.667969 383.023438 650.5625 389.984375 634.40625 384.136719 C 553.347656 355.027344 472.285156 355.027344 391.222656 384.136719 C 374.929688 389.984375 356.820312 383.023438 348.882812 367.703125 L 276.039062 228.421875 C 266.566406 210.316406 274.785156 187.613281 293.867188 180.230469 C 436.347656 124.65625 582.035156 123.40625 731.207031 180.367188 C 750.425781 187.75 758.921875 210.457031 749.3125 228.699219 Z M 749.3125 228.699219 " fill-opacity="1" fill-rule="nonzero"/><path fill="#000000" d="M 379.550781 393.390625 C 364.324219 393.390625 349.757812 385.078125 342.46875 371.023438 L 269.640625 231.773438 C 264.113281 221.207031 263.367188 208.714844 267.582031 197.507812 C 271.738281 186.460938 280.367188 177.714844 291.25 173.5 C 436.421875 116.894531 585.285156 116.9375 733.78125 173.625 C 744.847656 177.882812 753.601562 186.714844 757.804688 197.867188 C 762.019531 209.054688 761.257812 221.511719 755.71875 232.046875 L 683.140625 371.042969 C 673.441406 389.449219 651.445312 397.984375 631.949219 390.929688 C 552.914062 362.542969 472.753906 362.535156 393.660156 390.9375 C 389.023438 392.597656 384.257812 393.390625 379.550781 393.390625 Z M 511.113281 145.535156 C 438.988281 145.535156 367.285156 159.335938 296.480469 186.957031 C 289.304688 189.734375 283.851562 195.28125 281.101562 202.589844 C 278.324219 209.957031 278.816406 218.15625 282.441406 225.078125 L 355.285156 364.351562 C 361.503906 376.378906 375.882812 381.941406 388.78125 377.34375 C 471.101562 347.789062 554.550781 347.789062 636.839844 377.34375 C 649.65625 382.003906 664.007812 376.359375 670.351562 364.332031 L 742.917969 225.359375 C 742.917969 225.351562 742.929688 225.34375 742.929688 225.339844 C 746.554688 218.445312 747.0625 210.289062 744.296875 202.949219 C 741.550781 195.652344 735.839844 189.882812 728.621094 187.109375 C 656.042969 159.402344 583.367188 145.535156 511.113281 145.535156 Z M 511.113281 145.535156 " fill-opacity="1" fill-rule="nonzero"/><path fill="#000000" d="M 512.070312 211.859375 C 508.082031 211.859375 504.855469 208.632812 504.855469 204.640625 L 504.855469 138.089844 C 504.855469 134.101562 508.082031 130.871094 512.070312 130.871094 C 516.0625 130.871094 519.289062 134.101562 519.289062 138.089844 L 519.289062 204.640625 C 519.289062 208.632812 516.0625 211.859375 512.070312 211.859375 Z M 512.070312 211.859375 " fill-opacity="1" fill-rule="nonzero"/><path fill="#000000" d="M 435.109375 189.339844 C 431.558594 189.339844 428.46875 186.714844 427.976562 183.09375 L 426.269531 170.828125 C 425.058594 162.183594 423.84375 153.542969 422.773438 144.902344 C 422.28125 140.945312 425.085938 137.34375 429.046875 136.851562 C 432.855469 136.316406 436.605469 139.164062 437.097656 143.125 C 438.167969 151.6875 439.367188 160.261719 440.566406 168.824219 L 442.273438 181.140625 C 442.820312 185.09375 440.042969 188.730469 436.097656 189.273438 C 435.773438 189.316406 435.433594 189.339844 435.109375 189.339844 Z M 435.109375 189.339844 " fill-opacity="1" fill-rule="nonzero"/><path fill="#000000" d="M 366.550781 231.789062 C 363.378906 231.789062 360.460938 229.679688 359.585938 226.472656 C 356.246094 214.234375 352.832031 202.039062 349.449219 189.875 L 342.117188 163.546875 C 341.0625 159.695312 343.316406 155.722656 347.164062 154.664062 C 350.984375 153.632812 354.976562 155.863281 356.046875 159.695312 L 363.351562 185.996094 C 366.746094 198.191406 370.160156 210.402344 373.515625 222.667969 C 374.558594 226.507812 372.300781 230.484375 368.453125 231.535156 C 367.820312 231.703125 367.171875 231.789062 366.550781 231.789062 Z M 366.550781 231.789062 " fill-opacity="1" fill-rule="nonzero"/><path fill="#000000" d="M 658.890625 231.789062 C 658.257812 231.789062 657.609375 231.703125 656.972656 231.527344 C 653.125 230.46875 650.871094 226.492188 651.925781 222.644531 L 669.265625 160.125 C 670.339844 156.292969 674.300781 154.0625 678.148438 155.101562 C 682 156.171875 684.238281 160.148438 683.167969 163.988281 L 665.855469 226.492188 C 664.96875 229.6875 662.0625 231.789062 658.890625 231.789062 Z M 658.890625 231.789062 " fill-opacity="1" fill-rule="nonzero"/><path fill="#000000" d="M 590.332031 189.339844 C 589.992188 189.339844 589.667969 189.316406 589.332031 189.269531 C 585.382812 188.726562 582.621094 185.082031 583.167969 181.132812 C 584.902344 168.605469 586.625 156.066406 588.214844 143.53125 C 588.722656 139.570312 592.53125 136.84375 596.28125 137.28125 C 600.242188 137.78125 603.046875 141.398438 602.539062 145.351562 C 600.949219 157.941406 599.199219 170.523438 597.464844 183.105469 C 596.972656 186.722656 593.871094 189.339844 590.332031 189.339844 Z M 590.332031 189.339844 " fill-opacity="1" fill-rule="nonzero"/><path fill="#ffd4d4" d="M 512.691406 337.890625 L 475.632812 224.535156 " fill-opacity="1" fill-rule="nonzero"/><path fill="#000000" d="M 512.691406 345.117188 C 509.648438 345.117188 506.828125 343.183594 505.828125 340.140625 L 468.761719 226.777344 C 467.523438 222.992188 469.59375 218.910156 473.386719 217.675781 C 477.179688 216.429688 481.238281 218.5 482.492188 222.292969 L 519.558594 335.65625 C 520.800781 339.441406 518.726562 343.523438 514.933594 344.757812 C 514.1875 345.003906 513.441406 345.117188 512.691406 345.117188 Z M 512.691406 345.117188 " fill-opacity="1" fill-rule="nonzero"/><path fill="#edda8f" d="M 554.808594 362.292969 C 554.808594 363.15625 554.808594 364.023438 554.664062 364.890625 C 526.367188 361.425781 497.925781 361.425781 469.632812 365.035156 C 469.488281 364.167969 469.488281 363.15625 469.488281 362.292969 C 469.488281 338.757812 488.542969 319.703125 512.074219 319.703125 C 535.605469 319.703125 554.808594 338.757812 554.808594 362.292969 Z M 554.808594 362.292969 " fill-opacity="1" fill-rule="nonzero"/><path fill="#000000" d="M 469.621094 372.253906 C 466.183594 372.253906 463.152344 369.789062 462.53125 366.304688 C 462.304688 365.039062 462.261719 363.558594 462.261719 362.296875 C 462.261719 334.832031 484.609375 312.484375 512.070312 312.484375 C 539.621094 312.484375 562.023438 334.832031 562.023438 362.296875 C 562.023438 363.542969 561.992188 364.789062 561.78125 366.046875 C 561.175781 369.878906 557.625 372.621094 553.789062 372.050781 C 525.972656 368.644531 497.972656 368.6875 470.554688 372.199219 C 470.242188 372.234375 469.933594 372.253906 469.621094 372.253906 Z M 512.070312 326.921875 C 494.394531 326.921875 479.703125 339.957031 477.109375 356.910156 C 500.273438 354.535156 523.773438 354.5 547.164062 356.796875 C 544.5 339.894531 529.78125 326.921875 512.070312 326.921875 Z M 512.070312 326.921875 " fill-opacity="1" fill-rule="nonzero"/></svg>