<svg xmlns="http://www.w3.org/2000/svg" xmlns:xlink="http://www.w3.org/1999/xlink" width="1200" zoomAndPan="magnify" viewBox="0 0 900 1024.499969" height="1366" preserveAspectRatio="xMidYMid meet" version="1.0"><defs><clipPath id="9e89f9a265"><path d="M 82.769531 32 L 817.410156 32 L 817.410156 301 L 82.769531 301 Z M 82.769531 32 " clip-rule="nonzero"/></clipPath></defs><path fill="#dbf4fd" d="M 181.035156 508.324219 C 236.699219 470.351562 339.777344 446.769531 450.039062 446.769531 C 560.296875 446.769531 663.378906 470.351562 719.042969 508.324219 C 722.15625 510.449219 723.804688 514.148438 723.289062 517.890625 L 683.023438 811.332031 C 682.789062 835.769531 670 869.117188 611.179688 890.738281 C 571.914062 905.167969 516.1875 912.804688 450.039062 912.804688 C 383.886719 912.804688 328.164062 905.167969 288.890625 890.738281 C 230.078125 869.117188 217.285156 835.769531 217.046875 811.332031 L 176.785156 517.890625 C 176.269531 514.148438 177.917969 510.449219 181.035156 508.324219 Z M 149.871094 525.777344 L 197.367188 871.914062 C 197.429688 872.367188 197.457031 872.8125 197.457031 873.261719 C 197.457031 935.007812 291.878906 971.871094 450.039062 971.871094 C 608.195312 971.871094 702.617188 935.007812 702.617188 873.261719 C 702.617188 872.8125 702.644531 872.367188 702.710938 871.914062 L 750.203125 525.769531 L 789.929688 235.980469 C 789.808594 236.082031 789.675781 236.175781 789.558594 236.273438 C 787.730469 237.808594 785.824219 239.304688 783.84375 240.773438 C 783.671875 240.898438 783.496094 241.039062 783.320312 241.164062 C 781.292969 242.652344 779.164062 244.09375 776.984375 245.5 C 776.640625 245.734375 776.289062 245.953125 775.9375 246.179688 C 773.738281 247.582031 771.472656 248.953125 769.125 250.28125 C 768.894531 250.414062 768.65625 250.539062 768.421875 250.671875 C 766.023438 252.015625 763.566406 253.328125 761.027344 254.613281 C 760.941406 254.652344 760.855469 254.699219 760.761719 254.742188 C 758.191406 256.035156 755.539062 257.28125 752.835938 258.503906 C 752.484375 258.664062 752.136719 258.824219 751.785156 258.976562 C 749.085938 260.179688 746.332031 261.355469 743.507812 262.492188 C 743.28125 262.578125 743.0625 262.664062 742.835938 262.75 C 736.941406 265.109375 730.789062 267.320312 724.417969 269.40625 C 724.183594 269.480469 723.953125 269.5625 723.71875 269.632812 C 720.523438 270.671875 717.28125 271.683594 713.988281 272.652344 C 713.867188 272.683594 713.746094 272.71875 713.625 272.75 C 634.289062 296.039062 525.960938 300.855469 450.039062 300.855469 C 380.65625 300.855469 284.207031 296.828125 207.554688 278.363281 C 207.546875 278.363281 207.539062 278.363281 207.527344 278.359375 C 200.328125 276.625 193.304688 274.765625 186.496094 272.765625 C 186.351562 272.726562 186.207031 272.683594 186.0625 272.644531 C 182.785156 271.675781 179.558594 270.675781 176.382812 269.648438 C 176.125 269.5625 175.871094 269.480469 175.617188 269.394531 C 169.277344 267.320312 163.15625 265.117188 157.292969 262.777344 C 157.042969 262.679688 156.789062 262.578125 156.542969 262.476562 C 153.742188 261.347656 151.003906 260.1875 148.324219 258.988281 C 147.949219 258.824219 147.574219 258.65625 147.199219 258.488281 C 144.515625 257.277344 141.886719 256.035156 139.332031 254.757812 C 139.214844 254.699219 139.109375 254.636719 138.992188 254.578125 C 136.496094 253.320312 134.070312 252.027344 131.707031 250.699219 C 131.445312 250.550781 131.179688 250.414062 130.921875 250.265625 C 128.597656 248.945312 126.347656 247.582031 124.164062 246.195312 C 123.792969 245.960938 123.429688 245.726562 123.0625 245.488281 C 120.894531 244.082031 118.785156 242.652344 116.765625 241.179688 C 116.574219 241.03125 116.390625 240.882812 116.199219 240.746094 C 114.242188 239.296875 112.359375 237.8125 110.554688 236.300781 C 110.421875 236.195312 110.273438 236.089844 110.144531 235.980469 L 149.871094 525.777344 " fill-opacity="1" fill-rule="nonzero"/><path fill="#000000" d="M 789.558594 236.273438 C 789.675781 236.175781 789.808594 236.082031 789.929688 235.980469 L 750.203125 525.769531 L 702.710938 871.914062 C 702.644531 872.367188 702.617188 872.8125 702.617188 873.261719 C 702.617188 935.007812 608.195312 971.871094 450.039062 971.871094 C 291.878906 971.871094 197.457031 935.007812 197.457031 873.261719 C 197.457031 872.8125 197.429688 872.367188 197.367188 871.914062 L 149.871094 525.777344 L 110.144531 235.980469 C 110.273438 236.089844 110.421875 236.195312 110.554688 236.300781 C 97.964844 225.742188 89.09375 213.519531 85.128906 199.34375 C 85.054688 199.082031 85.007812 198.8125 84.933594 198.546875 L 130.167969 528.480469 L 177.574219 873.96875 C 177.8125 902.179688 192.609375 940.769531 260.980469 965.902344 C 307.007812 982.820312 372.382812 991.765625 450.039062 991.765625 C 527.6875 991.765625 593.066406 982.820312 639.09375 965.902344 C 707.46875 940.769531 722.265625 902.179688 722.503906 873.96875 L 769.910156 528.472656 L 815.136719 198.539062 C 815.070312 198.8125 815.019531 199.082031 814.945312 199.34375 C 810.984375 213.503906 802.121094 225.722656 789.558594 236.273438 " fill-opacity="1" fill-rule="nonzero"/><path fill="#000000" d="M 207.527344 278.359375 C 207.539062 278.363281 207.546875 278.363281 207.554688 278.363281 C 207.546875 278.363281 207.539062 278.363281 207.527344 278.359375 " fill-opacity="1" fill-rule="nonzero"/><path fill="#000000" d="M 723.71875 269.632812 C 723.953125 269.5625 724.183594 269.480469 724.417969 269.40625 C 724.183594 269.480469 723.953125 269.5625 723.71875 269.632812 " fill-opacity="1" fill-rule="nonzero"/><path fill="#000000" d="M 713.625 272.75 C 713.746094 272.71875 713.867188 272.683594 713.988281 272.652344 C 713.867188 272.683594 713.746094 272.71875 713.625 272.75 " fill-opacity="1" fill-rule="nonzero"/><path fill="#000000" d="M 775.9375 246.179688 C 776.289062 245.953125 776.640625 245.734375 776.984375 245.5 C 776.640625 245.734375 776.289062 245.953125 775.9375 246.179688 " fill-opacity="1" fill-rule="nonzero"/><path fill="#000000" d="M 186.0625 272.644531 C 186.207031 272.683594 186.351562 272.726562 186.496094 272.765625 C 186.351562 272.726562 186.207031 272.683594 186.0625 272.644531 " fill-opacity="1" fill-rule="nonzero"/><path fill="#000000" d="M 768.421875 250.671875 C 768.65625 250.539062 768.894531 250.414062 769.125 250.28125 C 768.894531 250.414062 768.65625 250.539062 768.421875 250.671875 " fill-opacity="1" fill-rule="nonzero"/><path fill="#000000" d="M 751.785156 258.976562 C 752.136719 258.824219 752.484375 258.664062 752.835938 258.503906 C 752.484375 258.664062 752.136719 258.824219 751.785156 258.976562 " fill-opacity="1" fill-rule="nonzero"/><path fill="#000000" d="M 760.761719 254.742188 C 760.855469 254.699219 760.941406 254.652344 761.027344 254.613281 C 760.941406 254.652344 760.855469 254.699219 760.761719 254.742188 " fill-opacity="1" fill-rule="nonzero"/><path fill="#000000" d="M 742.835938 262.75 C 743.0625 262.664062 743.28125 262.578125 743.507812 262.492188 C 743.28125 262.578125 743.0625 262.664062 742.835938 262.75 " fill-opacity="1" fill-rule="nonzero"/><path fill="#000000" d="M 123.0625 245.488281 C 123.429688 245.726562 123.792969 245.960938 124.164062 246.195312 C 123.792969 245.960938 123.429688 245.726562 123.0625 245.488281 " fill-opacity="1" fill-rule="nonzero"/><path fill="#000000" d="M 130.921875 250.265625 C 131.179688 250.414062 131.445312 250.550781 131.707031 250.699219 C 131.445312 250.550781 131.179688 250.414062 130.921875 250.265625 " fill-opacity="1" fill-rule="nonzero"/><path fill="#000000" d="M 175.617188 269.394531 C 175.871094 269.480469 176.125 269.5625 176.382812 269.648438 C 176.125 269.5625 175.871094 269.480469 175.617188 269.394531 " fill-opacity="1" fill-rule="nonzero"/><path fill="#000000" d="M 116.199219 240.746094 C 116.390625 240.882812 116.574219 241.03125 116.765625 241.179688 C 116.574219 241.03125 116.390625 240.882812 116.199219 240.746094 " fill-opacity="1" fill-rule="nonzero"/><path fill="#000000" d="M 156.542969 262.476562 C 156.789062 262.578125 157.042969 262.679688 157.292969 262.777344 C 157.042969 262.679688 156.789062 262.578125 156.542969 262.476562 " fill-opacity="1" fill-rule="nonzero"/><path fill="#000000" d="M 138.992188 254.578125 C 139.109375 254.636719 139.214844 254.699219 139.332031 254.757812 C 139.214844 254.699219 139.109375 254.636719 138.992188 254.578125 " fill-opacity="1" fill-rule="nonzero"/><path fill="#000000" d="M 147.199219 258.488281 C 147.574219 258.65625 147.949219 258.824219 148.324219 258.988281 C 147.949219 258.824219 147.574219 258.65625 147.199219 258.488281 " fill-opacity="1" fill-rule="nonzero"/><path fill="#000000" d="M 783.320312 241.164062 C 783.496094 241.039062 783.671875 240.898438 783.84375 240.773438 C 783.671875 240.898438 783.496094 241.039062 783.320312 241.164062 " fill-opacity="1" fill-rule="nonzero"/><path fill="#dbf4fd" d="M 104.28125 193.984375 C 119.523438 248.449219 248.777344 280.96875 450.039062 280.96875 C 651.296875 280.96875 780.550781 248.449219 795.789062 193.984375 C 796.855469 190.203125 797.386719 186.285156 797.386719 182.339844 C 797.386719 111.757812 638.324219 52.132812 450.039062 52.132812 C 261.753906 52.132812 102.6875 111.757812 102.6875 182.339844 C 102.6875 186.285156 103.222656 190.203125 104.28125 193.984375 " fill-opacity="1" fill-rule="nonzero"/><g clip-path="url(#9e89f9a265)"><path fill="#000000" d="M 450.035156 52.140625 C 638.320312 52.140625 797.378906 111.761719 797.378906 182.34375 C 797.378906 186.289062 796.847656 190.210938 795.785156 193.988281 C 780.550781 248.453125 651.296875 280.96875 450.035156 280.96875 C 248.773438 280.96875 119.519531 248.453125 104.28125 193.984375 C 103.222656 190.210938 102.6875 186.289062 102.6875 182.34375 C 102.6875 111.761719 261.75 52.140625 450.035156 52.140625 Z M 450.035156 32.25 C 244.109375 32.25 82.796875 98.175781 82.796875 182.34375 C 82.796875 187.832031 83.53125 193.277344 84.933594 198.554688 C 85.003906 198.816406 85.054688 199.085938 85.125 199.347656 C 89.089844 213.523438 97.964844 225.75 110.554688 236.304688 C 112.359375 237.824219 114.242188 239.308594 116.195312 240.746094 C 116.390625 240.890625 116.570312 241.039062 116.765625 241.183594 C 118.78125 242.652344 120.894531 244.089844 123.0625 245.492188 C 123.425781 245.726562 123.792969 245.964844 124.160156 246.199219 C 126.347656 247.589844 128.59375 248.945312 130.917969 250.269531 C 131.179688 250.414062 131.445312 250.558594 131.707031 250.707031 C 134.066406 252.03125 136.496094 253.324219 138.992188 254.582031 C 139.105469 254.644531 139.214844 254.707031 139.332031 254.761719 C 141.882812 256.042969 144.515625 257.277344 147.199219 258.492188 C 147.570312 258.65625 147.945312 258.828125 148.320312 258.992188 C 151.003906 260.191406 153.742188 261.355469 156.542969 262.484375 C 156.789062 262.585938 157.042969 262.679688 157.289062 262.78125 C 163.15625 265.125 169.277344 267.324219 175.613281 269.394531 C 175.871094 269.484375 176.125 269.5625 176.378906 269.648438 C 179.558594 270.683594 182.785156 271.679688 186.0625 272.644531 C 186.207031 272.6875 186.347656 272.726562 186.496094 272.769531 C 193.304688 274.769531 200.324219 276.628906 207.523438 278.367188 C 207.535156 278.367188 207.542969 278.367188 207.554688 278.375 C 284.207031 296.832031 380.65625 300.859375 450.035156 300.859375 C 525.957031 300.859375 634.285156 296.039062 713.625 272.753906 C 713.742188 272.71875 713.867188 272.6875 713.980469 272.652344 C 717.28125 271.679688 720.523438 270.675781 723.714844 269.644531 C 723.949219 269.5625 724.179688 269.492188 724.414062 269.410156 C 730.789062 267.324219 736.9375 265.117188 742.832031 262.757812 C 743.058594 262.671875 743.277344 262.585938 743.503906 262.496094 C 746.324219 261.355469 749.085938 260.1875 751.78125 258.980469 C 752.132812 258.828125 752.480469 258.664062 752.832031 258.507812 C 755.535156 257.285156 758.1875 256.042969 760.761719 254.75 C 760.847656 254.707031 760.9375 254.660156 761.019531 254.617188 C 763.558594 253.335938 766.015625 252.023438 768.414062 250.675781 C 768.648438 250.546875 768.886719 250.414062 769.121094 250.285156 C 771.46875 248.953125 773.734375 247.589844 775.933594 246.183594 C 776.289062 245.957031 776.636719 245.734375 776.984375 245.507812 C 779.160156 244.097656 781.289062 242.660156 783.320312 241.167969 C 783.492188 241.039062 783.667969 240.90625 783.839844 240.777344 C 785.816406 239.308594 787.722656 237.808594 789.554688 236.273438 C 802.117188 225.726562 810.976562 213.507812 814.941406 199.355469 C 815.011719 199.085938 815.0625 198.816406 815.136719 198.546875 C 816.53125 193.269531 817.273438 187.832031 817.273438 182.34375 C 817.273438 98.175781 655.960938 32.25 450.035156 32.25 " fill-opacity="1" fill-rule="nonzero"/></g><path fill="#82d7f7" d="M 249.683594 540.871094 C 254.933594 539.253906 260.503906 542.175781 262.132812 547.417969 C 268.160156 566.808594 320.683594 587.535156 450.039062 587.535156 C 579.386719 587.535156 631.914062 566.808594 637.941406 547.417969 C 639.570312 542.175781 645.144531 539.253906 650.386719 540.871094 C 655.628906 542.5 658.566406 548.074219 656.933594 553.316406 C 643.039062 598.039062 536.753906 607.429688 450.039062 607.429688 C 363.320312 607.429688 257.035156 598.039062 243.140625 553.316406 C 241.507812 548.074219 244.441406 542.5 249.683594 540.871094 Z M 236.933594 810.628906 C 236.933594 862.15625 316.597656 892.910156 450.039062 892.910156 C 583.472656 892.910156 663.144531 862.15625 663.144531 810.628906 C 663.144531 810.175781 663.171875 809.726562 663.230469 809.273438 L 702.730469 521.402344 C 649.066406 487.53125 553.15625 466.65625 450.039062 466.65625 C 346.917969 466.65625 251.011719 487.53125 197.339844 521.402344 L 236.839844 809.273438 C 236.902344 809.726562 236.933594 810.175781 236.933594 810.628906 " fill-opacity="1" fill-rule="nonzero"/><path fill="#000000" d="M 450.039062 466.65625 C 553.15625 466.65625 649.066406 487.53125 702.730469 521.402344 L 663.230469 809.273438 C 663.171875 809.726562 663.144531 810.175781 663.144531 810.628906 C 663.144531 862.15625 583.472656 892.910156 450.039062 892.910156 C 316.597656 892.910156 236.933594 862.15625 236.933594 810.628906 C 236.933594 810.175781 236.902344 809.726562 236.839844 809.273438 L 197.339844 521.402344 C 251.011719 487.53125 346.917969 466.65625 450.039062 466.65625 Z M 217.046875 811.332031 C 217.285156 835.769531 230.078125 869.117188 288.890625 890.738281 C 328.164062 905.167969 383.886719 912.804688 450.039062 912.804688 C 516.1875 912.804688 571.914062 905.167969 611.179688 890.738281 C 670 869.117188 682.789062 835.769531 683.023438 811.332031 L 723.289062 517.890625 C 723.804688 514.148438 722.15625 510.449219 719.042969 508.324219 C 663.378906 470.351562 560.296875 446.769531 450.039062 446.769531 C 339.777344 446.769531 236.699219 470.351562 181.035156 508.324219 C 177.917969 510.449219 176.269531 514.148438 176.785156 517.890625 L 217.046875 811.332031 " fill-opacity="1" fill-rule="nonzero"/><path fill="#000000" d="M 450.039062 607.429688 C 536.753906 607.429688 643.039062 598.039062 656.933594 553.316406 C 658.566406 548.074219 655.628906 542.5 650.386719 540.871094 C 645.144531 539.253906 639.570312 542.175781 637.941406 547.417969 C 631.914062 566.808594 579.386719 587.535156 450.039062 587.535156 C 320.683594 587.535156 268.160156 566.808594 262.132812 547.417969 C 260.503906 542.175781 254.933594 539.253906 249.683594 540.871094 C 244.441406 542.5 241.507812 548.074219 243.140625 553.316406 C 257.035156 598.039062 363.320312 607.429688 450.039062 607.429688 " fill-opacity="1" fill-rule="nonzero"/><path stroke-linecap="butt" transform="matrix(0.109547, 0.741587, -0.741587, 0.109547, 133.378464, 463.82975)" fill="none" stroke-linejoin="miter" d="M 0.00240836 2.00138 L 383.997688 2.000216 " stroke="#000000" stroke-width="4" stroke-opacity="1" stroke-miterlimit="4"/></svg>