<svg xmlns="http://www.w3.org/2000/svg" xmlns:xlink="http://www.w3.org/1999/xlink" width="1366" zoomAndPan="magnify" viewBox="0 0 1024.5 1024.500009" height="1366" preserveAspectRatio="xMidYMid meet" version="1.0"><path fill="#ffc6c6" d="M 252.371094 223.199219 C 260.390625 222.675781 361 218.753906 412.15625 347.746094 C 423.320312 258.4375 461.617188 87.148438 592.632812 22.488281 L 592.621094 22.464844 C 597.890625 19.867188 604.269531 22.027344 606.871094 27.296875 C 608.0625 29.71875 608.253906 32.375 607.597656 34.789062 C 605.519531 44.882812 578.628906 188.152344 690.167969 361.894531 C 777.777344 498.363281 759.300781 616.921875 742.210938 672.398438 C 767.527344 650.679688 802.890625 609.097656 813.632812 540.621094 L 813.59375 540.59375 C 814.503906 534.789062 819.945312 530.824219 825.75 531.730469 C 830.707031 532.507812 834.324219 536.589844 834.707031 541.382812 C 859.28125 742.765625 800.339844 871.292969 708.902344 939.648438 C 668.199219 970.082031 621.128906 988.5 572.140625 996.054688 C 523.351562 1003.574219 472.621094 1000.308594 424.382812 987.394531 C 308.878906 956.472656 207.523438 870.136719 180.964844 743.972656 C 164.125 663.996094 199.128906 583.804688 233.050781 506.101562 C 275.097656 409.777344 315.386719 317.480469 244.835938 241.03125 L 244.820312 241.046875 C 240.835938 236.730469 241.101562 230 245.421875 226.015625 C 247.398438 224.191406 249.878906 223.257812 252.371094 223.199219 Z M 252.371094 223.199219 " fill-opacity="1" fill-rule="nonzero"/><path fill="#f8de57" d="M 693.773438 950.105469 C 639.027344 985.839844 574.5 1001.566406 509.902344 999.808594 C 442.199219 997.960938 374.328125 976.914062 317.550781 939.578125 L 317.523438 939.613281 C 315.574219 938.332031 314.183594 936.519531 313.417969 934.492188 C 307.703125 921.402344 303.253906 907.582031 300.238281 893.1875 C 297.265625 878.984375 295.699219 864.34375 295.699219 849.429688 C 295.699219 761.195312 386.925781 647.34375 456.214844 560.867188 C 472.625 540.390625 487.785156 521.46875 499.933594 505.152344 L 499.921875 505.117188 C 503.429688 500.40625 510.09375 499.429688 514.804688 502.9375 C 515.898438 503.75 516.792969 504.738281 517.472656 505.828125 C 529.539062 521.992188 544.507812 540.671875 560.6875 560.867188 C 629.984375 647.34375 721.210938 761.191406 721.210938 849.429688 C 721.210938 866.433594 719.207031 882.984375 715.425781 898.855469 C 711.542969 915.15625 705.753906 930.773438 698.3125 945.464844 L 698.324219 945.492188 C 697.285156 947.546875 695.667969 949.117188 693.773438 950.105469 Z M 693.773438 950.105469 " fill-opacity="1" fill-rule="nonzero"/><path fill="#000000" d="M 389.511719 775.835938 C 389.511719 769.960938 384.75 765.195312 378.875 765.195312 C 373 765.195312 368.238281 769.960938 368.238281 775.835938 L 368.238281 872.492188 C 368.238281 878.367188 373 883.128906 378.875 883.128906 C 384.75 883.128906 389.511719 878.367188 389.511719 872.492188 Z M 389.511719 775.835938 " fill-opacity="1" fill-rule="nonzero"/><path fill="#000000" d="M 438.621094 783.648438 C 442.933594 779.679688 443.214844 772.964844 439.246094 768.648438 C 435.273438 764.332031 428.558594 764.054688 424.242188 768.023438 L 371.6875 816.351562 L 371.675781 816.335938 C 367.347656 820.3125 367.066406 827.042969 371.042969 831.367188 C 371.40625 831.761719 371.792969 832.121094 372.195312 832.449219 L 424.242188 880.308594 C 428.558594 884.277344 435.273438 883.996094 439.246094 879.683594 C 443.214844 875.367188 442.933594 868.652344 438.621094 864.679688 L 394.558594 824.164062 Z M 438.621094 783.648438 " fill-opacity="1" fill-rule="nonzero"/><path fill="#000000" d="M 591.886719 775.835938 C 591.886719 769.960938 587.125 765.195312 581.25 765.195312 C 575.375 765.195312 570.613281 769.960938 570.613281 775.835938 L 570.613281 872.492188 C 570.613281 878.367188 575.375 883.128906 581.25 883.128906 L 638.035156 883.128906 C 643.910156 883.128906 648.671875 878.367188 648.671875 872.492188 C 648.671875 866.617188 643.910156 861.851562 638.035156 861.851562 L 591.886719 861.851562 Z M 591.886719 775.835938 " fill-opacity="1" fill-rule="nonzero"/><path fill="#000000" d="M 530.136719 872.496094 C 530.136719 878.371094 534.898438 883.132812 540.773438 883.132812 C 546.648438 883.132812 551.414062 878.371094 551.414062 872.496094 L 551.414062 810.269531 C 551.414062 797.867188 546.34375 786.59375 538.179688 778.429688 C 530.019531 770.265625 518.746094 765.199219 506.339844 765.199219 C 493.933594 765.199219 482.664062 770.265625 474.5 778.429688 C 466.335938 786.59375 461.269531 797.867188 461.269531 810.269531 L 461.269531 872.496094 C 461.269531 878.371094 466.03125 883.132812 471.90625 883.132812 C 477.78125 883.132812 482.546875 878.371094 482.546875 872.496094 L 482.546875 810.269531 C 482.546875 803.738281 485.226562 797.792969 489.542969 793.472656 C 493.859375 789.15625 499.808594 786.476562 506.339844 786.476562 C 512.871094 786.476562 518.820312 789.15625 523.136719 793.472656 C 527.457031 797.792969 530.136719 803.738281 530.136719 810.269531 Z M 530.136719 872.496094 " fill-opacity="1" fill-rule="nonzero"/><path fill="#000000" d="M 471.90625 830.746094 C 466.03125 830.746094 461.269531 835.511719 461.269531 841.382812 C 461.269531 847.261719 466.03125 852.023438 471.90625 852.023438 L 540.773438 852.023438 C 546.648438 852.023438 551.414062 847.261719 551.414062 841.382812 C 551.414062 835.511719 546.648438 830.746094 540.773438 830.746094 Z M 471.90625 830.746094 " fill-opacity="1" fill-rule="nonzero"/></svg>